<?xml version="1.0" encoding="UTF-8" standalone="no"?>
<!-- Created with Inkscape (http://www.inkscape.org/) -->

<svg
   xmlns:dc="http://purl.org/dc/elements/1.1/"
   xmlns:cc="http://creativecommons.org/ns#"
   xmlns:rdf="http://www.w3.org/1999/02/22-rdf-syntax-ns#"
   xmlns:svg="http://www.w3.org/2000/svg"
   xmlns="http://www.w3.org/2000/svg"
   xmlns:xlink="http://www.w3.org/1999/xlink"
   xmlns:sodipodi="http://sodipodi.sourceforge.net/DTD/sodipodi-0.dtd"
   xmlns:inkscape="http://www.inkscape.org/namespaces/inkscape"
   width="63"
   height="63"
   id="svg3635"
   version="1.1"
   inkscape:version="0.47 r22583"
   sodipodi:docname="quiet3.svg"
   inkscape:export-filename="/home/chrisf/workspace/Cycloid/assets/new_fast_on_90.png"
   inkscape:export-xdpi="90"
   inkscape:export-ydpi="90"
   style="display:inline;enable-background:new">
  <defs
     id="defs3637">
    <linearGradient
       id="linearGradient3629">
      <stop
         id="stop3631"
         offset="0"
         style="stop-color:#4f4f4f;stop-opacity:1;" />
      <stop
         id="stop3633"
         offset="1"
         style="stop-color:#d5d5d5;stop-opacity:1;" />
    </linearGradient>
    <linearGradient
       id="linearGradient3615">
      <stop
         style="stop-color:#fbfbfb;stop-opacity:1;"
         offset="0"
         id="stop3617" />
      <stop
         style="stop-color:#dbdbdb;stop-opacity:1;"
         offset="1"
         id="stop3619" />
    </linearGradient>
    <inkscape:perspective
       sodipodi:type="inkscape:persp3d"
       inkscape:vp_x="0 : 526.18109 : 1"
       inkscape:vp_y="0 : 1000 : 0"
       inkscape:vp_z="744.09448 : 526.18109 : 1"
       inkscape:persp3d-origin="372.04724 : 350.78739 : 1"
       id="perspective3643" />
    <inkscape:perspective
       id="perspective3655"
       inkscape:persp3d-origin="0.5 : 0.33333333 : 1"
       inkscape:vp_z="1 : 0.5 : 1"
       inkscape:vp_y="0 : 1000 : 0"
       inkscape:vp_x="0 : 0.5 : 1"
       sodipodi:type="inkscape:persp3d" />
    <inkscape:perspective
       id="perspective4595"
       inkscape:persp3d-origin="0.5 : 0.33333333 : 1"
       inkscape:vp_z="1 : 0.5 : 1"
       inkscape:vp_y="0 : 1000 : 0"
       inkscape:vp_x="0 : 0.5 : 1"
       sodipodi:type="inkscape:persp3d" />
    <filter
       id="filter3687"
       inkscape:label="Emboss"
       width="1.1"
       height="1.1"
       y="-0.1"
       x="-0.1"
       color-interpolation-filters="sRGB">
      <feColorMatrix
         id="feColorMatrix2847"
         result="result3"
         type="luminanceToAlpha"
         in="BackgroundImage" />
      <feDiffuseLighting
         id="feDiffuseLighting3691"
         kernelUnitLength="0.01"
         in="result3"
         diffuseConstant="0.91000003"
         surfaceScale="-0.5"
         result="result1"
         lighting-color="#fefefe">
        <feDistantLight
           id="feDistantLight3685"
           elevation="45"
           azimuth="90" />
      </feDiffuseLighting>
      <feComposite
         id="feComposite3801"
         in2="BackgroundAlpha"
         operator="in"
         result="result2" />
    </filter>
    <filter
       id="filter3708"
       inkscape:label="Blend"
       x="-0.1"
       y="-0.1"
       width="1.1"
       height="1.1"
       color-interpolation-filters="sRGB">
      <feBlend
         blend="normal"
         id="feBlend3710"
         in2="SourceGraphic"
         in="BackgroundImage"
         mode="multiply" />
    </filter>
    <filter
       inkscape:collect="always"
       id="filter3770"
       x="-0.1"
       y="-0.1"
       width="1.1"
       height="1.1"
       inkscape:label="Bump Blur"
       color-interpolation-filters="sRGB">
      <feGaussianBlur
         inkscape:collect="always"
         stdDeviation="0.01 0.5"
         id="feGaussianBlur3772" />
    </filter>
    <inkscape:perspective
       id="perspective3965"
       inkscape:persp3d-origin="0.5 : 0.33333333 : 1"
       inkscape:vp_z="1 : 0.5 : 1"
       inkscape:vp_y="0 : 1000 : 0"
       inkscape:vp_x="0 : 0.5 : 1"
       sodipodi:type="inkscape:persp3d" />
    <inkscape:perspective
       id="perspective4039"
       inkscape:persp3d-origin="0.5 : 0.33333333 : 1"
       inkscape:vp_z="1 : 0.5 : 1"
       inkscape:vp_y="0 : 1000 : 0"
       inkscape:vp_x="0 : 0.5 : 1"
       sodipodi:type="inkscape:persp3d" />
    <linearGradient
       inkscape:collect="always"
       xlink:href="#linearGradient3629-5"
       id="linearGradient4029-7"
       gradientUnits="userSpaceOnUse"
       x1="30"
       y1="1"
       x2="30"
       y2="62"
       gradientTransform="matrix(-1,0,0,1,63,0)" />
    <linearGradient
       id="linearGradient3629-5">
      <stop
         id="stop3631-3"
         offset="0"
         style="stop-color:#4f4f4f;stop-opacity:1;" />
      <stop
         id="stop3633-8"
         offset="1"
         style="stop-color:#d5d5d5;stop-opacity:1;" />
    </linearGradient>
    <linearGradient
       y2="62"
       x2="30"
       y1="1"
       x1="30"
       gradientTransform="matrix(-1,0,0,1,62,-1.0000054)"
       gradientUnits="userSpaceOnUse"
       id="linearGradient4048"
       xlink:href="#linearGradient3629-5"
       inkscape:collect="always" />
  </defs>
  <sodipodi:namedview
     id="base"
     pagecolor="#ffffff"
     bordercolor="#666666"
     borderopacity="1.0"
     inkscape:pageopacity="0"
     inkscape:pageshadow="2"
     inkscape:zoom="11.313708"
     inkscape:cx="29.855543"
     inkscape:cy="25.832182"
     inkscape:document-units="px"
     inkscape:current-layer="layer5"
     showgrid="true"
     gridtolerance="10"
     inkscape:window-width="1919"
     inkscape:window-height="1173"
     inkscape:window-x="0"
     inkscape:window-y="1"
     inkscape:window-maximized="1">
    <inkscape:grid
       type="xygrid"
       id="grid3645"
       empspacing="5"
       visible="true"
       enabled="true"
       snapvisiblegridlinesonly="true"
       dotted="false" />
  </sodipodi:namedview>
  <metadata
     id="metadata3640">
    <rdf:RDF>
      <cc:Work
         rdf:about="">
        <dc:format>image/svg+xml</dc:format>
        <dc:type
           rdf:resource="http://purl.org/dc/dcmitype/StillImage" />
        <dc:title></dc:title>
      </cc:Work>
    </rdf:RDF>
  </metadata>
  <g
     inkscape:groupmode="layer"
     id="layer1"
     inkscape:label="Bump"
     style="display:inline">
    <path
       style="fill:#ffffff;fill-opacity:1;fill-rule:evenodd;stroke:none;display:inline;enable-background:new"
       d="m 4,58 c 0,0 56,0 56,0 C 60,58 60,5 60,5 60,5 4,5 4,5 4,5 4,58 4,58 z"
       id="path3675"
       sodipodi:nodetypes="ccccc" />
    <path
       id="path3981"
       style="fill:#000000;fill-opacity:1;fill-rule:evenodd;stroke:none;filter:url(#filter3770)"
       d="M 8,51 51,8 54,11 11,54 8,51 z M 49.65625,18.46875 47,21 48,24 44,24 24.09375,44 44,44 l 0,4 c 0,1.34375 1.65625,3 3,3 l 2,0 c 1.34375,0 3,-1.65625 3,-3 L 51.96875,43.96875 55,44 c 0,0 0,-7.59375 0,-17 0,-2.6875 -3,-3 -3,-3 L 49.65625,18.46875 z M 32,24 c 0,0 -21,21 -21,21 l 0,-1 -3,0 c 0,0 0,-8.9375 0,-17 0,-2.6875 3,-3 3,-3 l 6,-12 27,0 -2,2 -22,0 -5,10 c 0,0 17,0 17,0 z m 19,9 c 0,2 -1,3 -3,3 -2,0 -3,-1 -3,-3 0,-2 1,-3 3,-3 2,0 3,1 3,3 l 0,0 z m -33,0 c 0,2 -1,3 -3,3 -2,0 -3,-1 -3,-3 0,-2 1,-3 3,-3 2,0 3,1 3,3 l 0,0 z" />
  </g>
  <g
     inkscape:groupmode="layer"
     id="layer6"
     inkscape:label="Button"
     style="display:inline">
    <rect
       ry="0"
       y="0"
       x="0"
       height="63"
       width="63"
       id="rect3737"
       style="color:#000000;fill:none;stroke:none;stroke-width:0.01;marker:none;visibility:visible;display:inline;overflow:visible;filter:url(#filter3687);enable-background:accumulate" />
  </g>
  <g
     inkscape:groupmode="layer"
     id="layer5"
     inkscape:label="Matte"
     style="display:inline">
    <path
       id="path3984"
       style="color:#000000;fill:url(#linearGradient4029-7);fill-opacity:1;fill-rule:evenodd;stroke:none;marker:none;visibility:visible;display:inline;overflow:visible;enable-background:new"
       d="M 8,51 51,8 54,11 11,54 8,51 z M 49.65625,18.46875 47,21 48,24 44,24 24.09375,44 44,44 l 0,4 c 0,1.34375 1.65625,3 3,3 l 2,0 c 1.34375,0 3,-1.65625 3,-3 L 51.96875,43.96875 55,44 c 0,0 0,-7.59375 0,-17 0,-2.6875 -3,-3 -3,-3 L 49.65625,18.46875 z M 32,24 c 0,0 -21,21 -21,21 l 0,-1 -3,0 c 0,0 0,-8.9375 0,-17 0,-2.6875 3,-3 3,-3 l 6,-12 27,0 -2,2 -22,0 -5,10 c 0,0 17,0 17,0 z m 19,9 c 0,2 -1,3 -3,3 -2,0 -3,-1 -3,-3 0,-2 1,-3 3,-3 2,0 3,1 3,3 l 0,0 z m -33,0 c 0,2 -1,3 -3,3 -2,0 -3,-1 -3,-3 0,-2 1,-3 3,-3 2,0 3,1 3,3 l 0,0 z M 62,61.991604 C 62,61.991604 6,62 6,62 3,62 1,60 1,57 1.03331,40.048043 0.88232,22.949877 1,6 1,3 3,1 6,1 c 0,0 55.999999,0.059793 55.999999,0.059793 0,0 10e-7,60.9318108 10e-7,60.9318108 z"
       sodipodi:nodetypes="cccccccccccccccccsccccccsccccccccssscccsssccccccccc" />
  </g>
</svg>
