<?xml version="1.0" encoding="UTF-8" standalone="no"?>
<!-- Created with Inkscape (http://www.inkscape.org/) -->

<svg
   xmlns:dc="http://purl.org/dc/elements/1.1/"
   xmlns:cc="http://creativecommons.org/ns#"
   xmlns:rdf="http://www.w3.org/1999/02/22-rdf-syntax-ns#"
   xmlns:svg="http://www.w3.org/2000/svg"
   xmlns="http://www.w3.org/2000/svg"
   xmlns:xlink="http://www.w3.org/1999/xlink"
   xmlns:sodipodi="http://sodipodi.sourceforge.net/DTD/sodipodi-0.dtd"
   xmlns:inkscape="http://www.inkscape.org/namespaces/inkscape"
   width="63"
   height="63"
   id="svg3635"
   version="1.1"
   inkscape:version="0.47 r22583"
   sodipodi:docname="balanced2.svg"
   inkscape:export-filename="/home/chrisf/workspace/Cycloid/assets/new_balanced_on_90.png"
   inkscape:export-xdpi="90"
   inkscape:export-ydpi="90"
   style="display:inline;enable-background:new">
  <defs
     id="defs3637">
    <linearGradient
       id="linearGradient3629">
      <stop
         id="stop3631"
         offset="0"
         style="stop-color:#4f4f4f;stop-opacity:1;" />
      <stop
         id="stop3633"
         offset="1"
         style="stop-color:#d5d5d5;stop-opacity:1;" />
    </linearGradient>
    <linearGradient
       id="linearGradient3615">
      <stop
         style="stop-color:#fbfbfb;stop-opacity:1;"
         offset="0"
         id="stop3617" />
      <stop
         style="stop-color:#dbdbdb;stop-opacity:1;"
         offset="1"
         id="stop3619" />
    </linearGradient>
    <inkscape:perspective
       sodipodi:type="inkscape:persp3d"
       inkscape:vp_x="0 : 526.18109 : 1"
       inkscape:vp_y="0 : 1000 : 0"
       inkscape:vp_z="744.09448 : 526.18109 : 1"
       inkscape:persp3d-origin="372.04724 : 350.78739 : 1"
       id="perspective3643" />
    <inkscape:perspective
       id="perspective3655"
       inkscape:persp3d-origin="0.5 : 0.33333333 : 1"
       inkscape:vp_z="1 : 0.5 : 1"
       inkscape:vp_y="0 : 1000 : 0"
       inkscape:vp_x="0 : 0.5 : 1"
       sodipodi:type="inkscape:persp3d" />
    <inkscape:perspective
       id="perspective4595"
       inkscape:persp3d-origin="0.5 : 0.33333333 : 1"
       inkscape:vp_z="1 : 0.5 : 1"
       inkscape:vp_y="0 : 1000 : 0"
       inkscape:vp_x="0 : 0.5 : 1"
       sodipodi:type="inkscape:persp3d" />
    <filter
       id="filter3687"
       inkscape:label="Emboss"
       width="1.1"
       height="1.1"
       y="-0.1"
       x="-0.1"
       color-interpolation-filters="sRGB">
      <feColorMatrix
         id="feColorMatrix2847"
         result="result3"
         type="luminanceToAlpha"
         in="BackgroundImage" />
      <feDiffuseLighting
         id="feDiffuseLighting3691"
         kernelUnitLength="0.01"
         in="result3"
         diffuseConstant="0.91000003"
         surfaceScale="-0.5"
         result="result1"
         lighting-color="#fefefe">
        <feDistantLight
           id="feDistantLight3685"
           elevation="45"
           azimuth="90" />
      </feDiffuseLighting>
      <feComposite
         id="feComposite3801"
         in2="BackgroundAlpha"
         operator="in"
         result="result2" />
    </filter>
    <filter
       id="filter3708"
       inkscape:label="Blend"
       x="-0.1"
       y="-0.1"
       width="1.1"
       height="1.1"
       color-interpolation-filters="sRGB">
      <feBlend
         blend="normal"
         id="feBlend3710"
         in2="SourceGraphic"
         in="BackgroundImage"
         mode="multiply" />
    </filter>
    <filter
       inkscape:collect="always"
       id="filter3770"
       x="-0.1"
       y="-0.1"
       width="1.1"
       height="1.1"
       inkscape:label="Bump Blur"
       color-interpolation-filters="sRGB">
      <feGaussianBlur
         inkscape:collect="always"
         stdDeviation="0.01 0.5"
         id="feGaussianBlur3772" />
    </filter>
    <inkscape:perspective
       id="perspective3965"
       inkscape:persp3d-origin="0.5 : 0.33333333 : 1"
       inkscape:vp_z="1 : 0.5 : 1"
       inkscape:vp_y="0 : 1000 : 0"
       inkscape:vp_x="0 : 0.5 : 1"
       sodipodi:type="inkscape:persp3d" />
    <inkscape:perspective
       id="perspective4039"
       inkscape:persp3d-origin="0.5 : 0.33333333 : 1"
       inkscape:vp_z="1 : 0.5 : 1"
       inkscape:vp_y="0 : 1000 : 0"
       inkscape:vp_x="0 : 0.5 : 1"
       sodipodi:type="inkscape:persp3d" />
    <linearGradient
       inkscape:collect="always"
       xlink:href="#linearGradient3615"
       id="linearGradient4029-7"
       gradientUnits="userSpaceOnUse"
       x1="30"
       y1="1"
       x2="30"
       y2="62"
       gradientTransform="matrix(-1,0,0,1,63,0)" />
    <linearGradient
       id="linearGradient3629-5">
      <stop
         id="stop3631-3"
         offset="0"
         style="stop-color:#4f4f4f;stop-opacity:1;" />
      <stop
         id="stop3633-8"
         offset="1"
         style="stop-color:#d5d5d5;stop-opacity:1;" />
    </linearGradient>
    <linearGradient
       y2="62"
       x2="30"
       y1="1"
       x1="30"
       gradientTransform="matrix(-1,0,0,1,62,-1.0000054)"
       gradientUnits="userSpaceOnUse"
       id="linearGradient4048"
       xlink:href="#linearGradient3629-5"
       inkscape:collect="always" />
    <inkscape:perspective
       id="perspective4179"
       inkscape:persp3d-origin="0.5 : 0.33333333 : 1"
       inkscape:vp_z="1 : 0.5 : 1"
       inkscape:vp_y="0 : 1000 : 0"
       inkscape:vp_x="0 : 0.5 : 1"
       sodipodi:type="inkscape:persp3d" />
    <inkscape:perspective
       id="perspective4205"
       inkscape:persp3d-origin="0.5 : 0.33333333 : 1"
       inkscape:vp_z="1 : 0.5 : 1"
       inkscape:vp_y="0 : 1000 : 0"
       inkscape:vp_x="0 : 0.5 : 1"
       sodipodi:type="inkscape:persp3d" />
    <linearGradient
       inkscape:collect="always"
       xlink:href="#linearGradient3629-5"
       id="linearGradient4029-7-5"
       gradientUnits="userSpaceOnUse"
       x1="30"
       y1="1"
       x2="30"
       y2="62"
       gradientTransform="matrix(-1,0,0,1,63,0)" />
    <linearGradient
       id="linearGradient3615-4">
      <stop
         style="stop-color:#fbfbfb;stop-opacity:1;"
         offset="0"
         id="stop3617-9" />
      <stop
         style="stop-color:#dbdbdb;stop-opacity:1;"
         offset="1"
         id="stop3619-9" />
    </linearGradient>
    <linearGradient
       y2="62"
       x2="30"
       y1="1"
       x1="30"
       gradientTransform="matrix(-1,0,0,1,62.045644,-1)"
       gradientUnits="userSpaceOnUse"
       id="linearGradient4214"
       xlink:href="#linearGradient3615-4"
       inkscape:collect="always" />
  </defs>
  <sodipodi:namedview
     id="base"
     pagecolor="#ffffff"
     bordercolor="#666666"
     borderopacity="1.0"
     inkscape:pageopacity="0"
     inkscape:pageshadow="2"
     inkscape:zoom="11.313708"
     inkscape:cx="21.558899"
     inkscape:cy="31.31404"
     inkscape:document-units="px"
     inkscape:current-layer="layer5"
     showgrid="true"
     gridtolerance="10"
     inkscape:window-width="1919"
     inkscape:window-height="1173"
     inkscape:window-x="0"
     inkscape:window-y="1"
     inkscape:window-maximized="1">
    <inkscape:grid
       type="xygrid"
       id="grid3645"
       empspacing="5"
       visible="true"
       enabled="true"
       snapvisiblegridlinesonly="true"
       dotted="false" />
  </sodipodi:namedview>
  <metadata
     id="metadata3640">
    <rdf:RDF>
      <cc:Work
         rdf:about="">
        <dc:format>image/svg+xml</dc:format>
        <dc:type
           rdf:resource="http://purl.org/dc/dcmitype/StillImage" />
        <dc:title></dc:title>
      </cc:Work>
    </rdf:RDF>
  </metadata>
  <g
     inkscape:groupmode="layer"
     id="layer1"
     inkscape:label="Bump"
     style="display:inline">
    <path
       style="fill:#ffffff;fill-opacity:1;fill-rule:evenodd;stroke:none;display:inline;enable-background:new"
       d="m 4,58 c 0,0 56,0 56,0 C 60,58 60,5 60,5 60,5 4,5 4,5 4,5 4,58 4,58 z"
       id="path3675"
       sodipodi:nodetypes="ccccc" />
    <path
       id="path2846"
       style="font-size:medium;font-style:normal;font-variant:normal;font-weight:normal;font-stretch:normal;text-indent:0;text-align:start;text-decoration:none;line-height:normal;letter-spacing:normal;word-spacing:normal;text-transform:none;direction:ltr;block-progression:tb;writing-mode:lr-tb;text-anchor:start;color:#000000;fill:#000000;fill-opacity:1;fill-rule:evenodd;stroke:none;stroke-width:0.1;marker:none;visibility:visible;display:inline;overflow:visible;filter:url(#filter3770);enable-background:accumulate;font-family:Bitstream Vera Sans;-inkscape-font-specification:Bitstream Vera Sans"
       d="m 33,22 c 1.03125,-0.375 1.78125,-1.0625 2,-2 l 15,0 0,-3 -15,0 C 34.8125,15.96875 33.936113,15.249266 33,15 L 33,12 29.999997,11.9165 30,15 c -0.9375,0.21875 -1.5,0.84375 -2,2 l -16,0 0,3 16,0 c 0.375,1 1,1.6875 2,2 l 0,26 3,0 0,-26 z M 20,48 20.0027,51 42,51 42,48 20,48 z M 56,33 c 0,4.343939 -4.070344,9.025709 -8.000001,9.025709 C 44.070343,42.025709 40,37.343939 40,33 M 42.304195,33 48,20 53.695805,33 M 22,33 c 0,4.34394 -4.070344,9.123504 -8,9.123504 C 10.070343,42.123504 6,37.34394 6,33 M 8.3041956,33 14,20 19.695806,33"
       sodipodi:nodetypes="cccccccccccccccccccccccscccccscccc" />
  </g>
  <g
     inkscape:groupmode="layer"
     id="layer6"
     inkscape:label="Button"
     style="display:inline">
    <rect
       ry="0"
       y="0"
       x="0"
       height="63"
       width="63"
       id="rect3737"
       style="color:#000000;fill:none;stroke:none;stroke-width:0.01;marker:none;visibility:visible;display:inline;overflow:visible;filter:url(#filter3687);enable-background:accumulate" />
  </g>
  <g
     inkscape:groupmode="layer"
     id="layer5"
     inkscape:label="Matte"
     style="display:inline">
    <path
       id="path4193"
       style="font-size:medium;font-style:normal;font-variant:normal;font-weight:normal;font-stretch:normal;text-indent:0;text-align:start;text-decoration:none;line-height:normal;letter-spacing:normal;word-spacing:normal;text-transform:none;direction:ltr;block-progression:tb;writing-mode:lr-tb;text-anchor:start;color:#000000;fill:url(#linearGradient4029-7-5);fill-opacity:1.0;fill-rule:evenodd;stroke:none;stroke-width:1;marker:none;visibility:visible;display:inline;overflow:visible;enable-background:new;font-family:Bitstream Vera Sans;-inkscape-font-specification:Bitstream Vera Sans"
       d="m 33,22 c 1.03125,-0.375 1.78125,-1.0625 2,-2 l 15,0 0,-3 -15,0 C 34.8125,15.96875 33.936113,15.249266 33,15 L 33,12 29.999997,11.9165 30,15 c -0.9375,0.21875 -1.5,0.84375 -2,2 l -16,0 0,3 16,0 c 0.375,1 1,1.6875 2,2 l 0,26 3,0 0,-26 z M 20,48 20.0027,51 42,51 42,48 20,48 z M 56,33 c 0,4.343939 -4.070344,9.025709 -8.000001,9.025709 C 44.070343,42.025709 40,37.343939 40,33 M 42.304195,33 48,20 53.695805,33 M 22,33 c 0,4.34394 -4.070344,9.123504 -8,9.123504 C 10.070343,42.123504 6,37.34394 6,33 M 8.3041956,33 14,20 19.695806,33 M 62,61.991604 C 41.666667,61.99323 21.333333,62 1,62 1,62 1,1 1,1 c 20.333337,0.00855 40.66667,0.038083 60.999999,0.059793 0,0 10e-7,60.931811 10e-7,60.931811 z"
       sodipodi:nodetypes="cccccccccccccccccccccccscccccsccccccccc" />
  </g>
</svg>
