<?xml version="1.0" encoding="UTF-8" standalone="no"?>
<!-- Created with Inkscape (http://www.inkscape.org/) -->

<svg
   xmlns:dc="http://purl.org/dc/elements/1.1/"
   xmlns:cc="http://creativecommons.org/ns#"
   xmlns:rdf="http://www.w3.org/1999/02/22-rdf-syntax-ns#"
   xmlns:svg="http://www.w3.org/2000/svg"
   xmlns="http://www.w3.org/2000/svg"
   xmlns:xlink="http://www.w3.org/1999/xlink"
   xmlns:sodipodi="http://sodipodi.sourceforge.net/DTD/sodipodi-0.dtd"
   xmlns:inkscape="http://www.inkscape.org/namespaces/inkscape"
   width="63"
   height="63"
   id="svg3635"
   version="1.1"
   inkscape:version="0.47 r22583"
   sodipodi:docname="fast5.svg"
   inkscape:export-filename="/home/chrisf/workspace/Cycloid/assets/new_fast_off_90.png"
   inkscape:export-xdpi="90"
   inkscape:export-ydpi="90"
   style="display:inline;enable-background:new">
  <defs
     id="defs3637">
    <linearGradient
       id="linearGradient3629">
      <stop
         id="stop3631"
         offset="0"
         style="stop-color:#4f4f4f;stop-opacity:1;" />
      <stop
         id="stop3633"
         offset="1"
         style="stop-color:#d5d5d5;stop-opacity:1;" />
    </linearGradient>
    <linearGradient
       id="linearGradient3615">
      <stop
         style="stop-color:#fbfbfb;stop-opacity:1;"
         offset="0"
         id="stop3617" />
      <stop
         style="stop-color:#dbdbdb;stop-opacity:1;"
         offset="1"
         id="stop3619" />
    </linearGradient>
    <inkscape:perspective
       sodipodi:type="inkscape:persp3d"
       inkscape:vp_x="0 : 526.18109 : 1"
       inkscape:vp_y="0 : 1000 : 0"
       inkscape:vp_z="744.09448 : 526.18109 : 1"
       inkscape:persp3d-origin="372.04724 : 350.78739 : 1"
       id="perspective3643" />
    <inkscape:perspective
       id="perspective3655"
       inkscape:persp3d-origin="0.5 : 0.33333333 : 1"
       inkscape:vp_z="1 : 0.5 : 1"
       inkscape:vp_y="0 : 1000 : 0"
       inkscape:vp_x="0 : 0.5 : 1"
       sodipodi:type="inkscape:persp3d" />
    <inkscape:perspective
       id="perspective4595"
       inkscape:persp3d-origin="0.5 : 0.33333333 : 1"
       inkscape:vp_z="1 : 0.5 : 1"
       inkscape:vp_y="0 : 1000 : 0"
       inkscape:vp_x="0 : 0.5 : 1"
       sodipodi:type="inkscape:persp3d" />
    <filter
       id="filter3687"
       inkscape:label="Emboss"
       width="1.1"
       height="1.1"
       y="-0.1"
       x="-0.1"
       color-interpolation-filters="sRGB">
      <feColorMatrix
         id="feColorMatrix2847"
         result="result3"
         type="luminanceToAlpha"
         in="BackgroundImage" />
      <feDiffuseLighting
         id="feDiffuseLighting3691"
         kernelUnitLength="0.01"
         in="result3"
         diffuseConstant="0.91000000000000003"
         surfaceScale="-0.5"
         result="result1"
         lighting-color="#fefefe">
        <feDistantLight
           id="feDistantLight3685"
           elevation="45"
           azimuth="90" />
      </feDiffuseLighting>
      <feComposite
         id="feComposite3801"
         in2="BackgroundAlpha"
         operator="in"
         result="result2" />
    </filter>
    <filter
       id="filter3708"
       inkscape:label="Blend"
       x="-0.1"
       y="-0.1"
       width="1.1"
       height="1.1"
       color-interpolation-filters="sRGB">
      <feBlend
         blend="normal"
         id="feBlend3710"
         in2="SourceGraphic"
         in="BackgroundImage"
         mode="multiply" />
    </filter>
    <filter
       inkscape:collect="always"
       id="filter3770"
       x="-0.1"
       y="-0.1"
       width="1.1"
       height="1.1"
       inkscape:label="Bump Blur"
       color-interpolation-filters="sRGB">
      <feGaussianBlur
         inkscape:collect="always"
         stdDeviation="0.01 0.5"
         id="feGaussianBlur3772" />
    </filter>
    <linearGradient
       inkscape:collect="always"
       xlink:href="#linearGradient3615"
       id="linearGradient3789"
       x1="30"
       y1="1"
       x2="30"
       y2="62"
       gradientUnits="userSpaceOnUse" />
  </defs>
  <sodipodi:namedview
     id="base"
     pagecolor="#ffffff"
     bordercolor="#666666"
     borderopacity="1.0"
     inkscape:pageopacity="0"
     inkscape:pageshadow="2"
     inkscape:zoom="8"
     inkscape:cx="53.597975"
     inkscape:cy="11.555701"
     inkscape:document-units="px"
     inkscape:current-layer="layer5"
     showgrid="true"
     gridtolerance="10"
     inkscape:window-width="1919"
     inkscape:window-height="1173"
     inkscape:window-x="0"
     inkscape:window-y="1"
     inkscape:window-maximized="1">
    <inkscape:grid
       type="xygrid"
       id="grid3645"
       empspacing="5"
       visible="true"
       enabled="true"
       snapvisiblegridlinesonly="true"
       dotted="false" />
  </sodipodi:namedview>
  <metadata
     id="metadata3640">
    <rdf:RDF>
      <cc:Work
         rdf:about="">
        <dc:format>image/svg+xml</dc:format>
        <dc:type
           rdf:resource="http://purl.org/dc/dcmitype/StillImage" />
        <dc:title></dc:title>
      </cc:Work>
    </rdf:RDF>
  </metadata>
  <g
     inkscape:groupmode="layer"
     id="layer8"
     inkscape:label="Bump"
     style="display:none">
    <path
       sodipodi:nodetypes="ccccccccccccccccccccccccccccccccc"
       id="path3723"
       d="m 51,29 -3,0 0,3 -4,0 0,-3 -25,0 0,3 -4,0 0,-3 -3,0 0,-4 39,0 0,4 z M 24.085651,23.048323 c 1.247904,0 4.495808,0 5.743712,0 0.148065,-4.685821 0.296129,-9.312774 0.444194,-13.998594 l -3.94106,0 c -0.599064,4.140012 -1.647782,9.858582 -2.246846,13.998594 z m 14.58942,0 c -1.264425,0 -4.52885,0 -5.793274,0 -0.09166,-4.665882 -0.183318,-9.331762 -0.274977,-13.997644 l 4.030801,-9.5e-4 c 0.563424,4.119475 1.474026,9.879119 2.03745,13.998594 z M 29.675285,31.02626 C 29.455918,39.062893 29.219367,47.963366 29,56 c -2.652341,0 -7.347659,0 -10,0 1.485001,-8.036634 2.514999,-16.963367 4,-25 1.386706,0 5.288579,0.02626 6.675285,0.02626 z M 33,31 l 1,25 10,0 -4,-25 -7,0 z"
       style="fill:#000000;fill-opacity:1;fill-rule:evenodd;stroke:none;display:inline;filter:url(#filter3770);enable-background:new" />
  </g>
  <g
     inkscape:groupmode="layer"
     id="layer1"
     inkscape:label="New Bump"
     style="display:inline">
    <path
       style="fill:#ffffff;fill-opacity:1;fill-rule:evenodd;stroke:none;display:inline;enable-background:new"
       d="m 5,60 c 0,0 45,0 45,0 0,0 5,-3 5,-3 C 55,57 55,6 55,6 55,6 50,3 50,3 50,3 5.000001,3.0681892 5.000001,3.0681892 5.000001,3.0681892 5,60 5,60 z"
       id="path3675"
       sodipodi:nodetypes="ccccccc" />
    <path
       id="path3689"
       style="fill:#000000;fill-opacity:1;fill-rule:evenodd;stroke:none;display:inline;filter:url(#filter3770);enable-background:new"
       d="M 33.377523,31 34,56 44,56 40,31 33.377523,31 z m -3.702238,0.02626 C 29.455918,39.062893 29.219367,47.963366 29,56 c -2.652341,0 -7.347659,0 -10,0 1.485001,-8.036634 2.514999,-16.963367 4,-25 1.386706,0 5.288579,0.02626 6.675285,0.02626 z m 8.999786,-7.977937 c -1.264425,0 -4.52885,0 -5.793274,0 -0.09166,-4.665882 -0.183318,-9.331762 -0.274977,-13.997644 l 4.030801,-9.5e-4 c 0.563424,4.119475 1.474026,9.879119 2.03745,13.998594 z m -14.58942,0 c 1.247904,0 4.495808,0 5.743712,0 0.148065,-4.685821 0.296129,-9.312774 0.444194,-13.998594 l -3.94106,0 c -0.599064,4.140012 -1.647782,9.858582 -2.246846,13.998594 z M 51,29 l -3,0 0,3 -4,0 0,-3 -25,0 0,3 -4,0 0,-3 -3,0 0,-4 39,0 0,4 z" />
  </g>
  <g
     inkscape:groupmode="layer"
     id="layer6"
     inkscape:label="Button"
     style="display:inline">
    <rect
       ry="0"
       y="0"
       x="0"
       height="63"
       width="63"
       id="rect3737"
       style="color:#000000;fill:none;stroke:none;stroke-width:0.01;marker:none;visibility:visible;display:inline;overflow:visible;filter:url(#filter3687);enable-background:accumulate" />
  </g>
  <g
     inkscape:groupmode="layer"
     id="layer5"
     inkscape:label="Matte"
     style="display:inline">
    <path
       style="fill:url(#linearGradient3789);fill-opacity:1.0;fill-rule:evenodd;stroke:none;display:inline;enable-background:new"
       d="m 51,29 -3,0 0,3 -4,0 0,-3 -25,0 0,3 -4,0 0,-3 -3,0 0,-4 39,0 0,4 z M 24.085651,23.048323 c 1.247904,0 4.495808,0 5.743712,0 0.148065,-4.685821 0.296129,-9.312774 0.444194,-13.998594 l -3.94106,0 c -0.599064,4.140012 -1.647782,9.858582 -2.246846,13.998594 z m 14.58942,0 c -1.264425,0 -4.52885,0 -5.793274,0 -0.09166,-4.665882 -0.183318,-9.331762 -0.274977,-13.997644 l 4.030801,-9.5e-4 c 0.563424,4.119475 1.474026,9.879119 2.03745,13.998594 z M 29.675285,31.02626 C 29.455918,39.062893 29.219367,47.963366 29,56 c -2.652341,0 -7.347659,0 -10,0 1.485001,-8.036634 2.514999,-16.963367 4,-25 1.386706,0 5.288579,0.02626 6.675285,0.02626 z M 33.377523,31 34,56 44,56 40,31 33.377523,31 z M 1,61.991604 C 20.101944,61.958234 57,62 57,62 60,62 62,60 62,57 61.96669,40.048043 62,6 62,6 62,3 59,1 56,1 37.834254,1 19.165747,1.0597932 1.000001,1.0597932 1,21.370394 1,41.681 1,61.991604 z"
       id="Matte"
       sodipodi:nodetypes="cccccccccccccccccccccccccccccccccccccccc" />
  </g>
</svg>
