<?xml version="1.0" encoding="UTF-8" standalone="no"?>
<!-- Created with Inkscape (http://www.inkscape.org/) -->

<svg
   xmlns:dc="http://purl.org/dc/elements/1.1/"
   xmlns:cc="http://creativecommons.org/ns#"
   xmlns:rdf="http://www.w3.org/1999/02/22-rdf-syntax-ns#"
   xmlns:svg="http://www.w3.org/2000/svg"
   xmlns="http://www.w3.org/2000/svg"
   xmlns:sodipodi="http://sodipodi.sourceforge.net/DTD/sodipodi-0.dtd"
   xmlns:inkscape="http://www.inkscape.org/namespaces/inkscape"
   width="63"
   height="63"
   id="svg3635"
   version="1.1"
   inkscape:version="0.47 r22583"
   sodipodi:docname="fast.svg"
   inkscape:export-filename="/home/chrisf/workspace/Cycloid/assets/fast.png"
   inkscape:export-xdpi="60"
   inkscape:export-ydpi="60"
   enable-background="new">
  <defs
     id="defs3637">
    <inkscape:perspective
       sodipodi:type="inkscape:persp3d"
       inkscape:vp_x="0 : 526.18109 : 1"
       inkscape:vp_y="0 : 1000 : 0"
       inkscape:vp_z="744.09448 : 526.18109 : 1"
       inkscape:persp3d-origin="372.04724 : 350.78739 : 1"
       id="perspective3643" />
    <inkscape:perspective
       id="perspective3655"
       inkscape:persp3d-origin="0.5 : 0.33333333 : 1"
       inkscape:vp_z="1 : 0.5 : 1"
       inkscape:vp_y="0 : 1000 : 0"
       inkscape:vp_x="0 : 0.5 : 1"
       sodipodi:type="inkscape:persp3d" />
    <inkscape:perspective
       id="perspective4595"
       inkscape:persp3d-origin="0.5 : 0.33333333 : 1"
       inkscape:vp_z="1 : 0.5 : 1"
       inkscape:vp_y="0 : 1000 : 0"
       inkscape:vp_x="0 : 0.5 : 1"
       sodipodi:type="inkscape:persp3d" />
    <filter
       inkscape:collect="always"
       id="filter4632">
      <feBlend
         inkscape:collect="always"
         mode="darken"
         in2="BackgroundImage"
         id="feBlend4634" />
    </filter>
  </defs>
  <sodipodi:namedview
     id="base"
     pagecolor="#ffffff"
     bordercolor="#666666"
     borderopacity="1.0"
     inkscape:pageopacity="1"
     inkscape:pageshadow="2"
     inkscape:zoom="8.3492065"
     inkscape:cx="25.516711"
     inkscape:cy="31.646792"
     inkscape:document-units="px"
     inkscape:current-layer="layer1"
     showgrid="true"
     gridtolerance="10"
     inkscape:window-width="1919"
     inkscape:window-height="1173"
     inkscape:window-x="0"
     inkscape:window-y="1"
     inkscape:window-maximized="1">
    <inkscape:grid
       type="xygrid"
       id="grid3645"
       empspacing="5"
       visible="true"
       enabled="true"
       snapvisiblegridlinesonly="true"
       dotted="false" />
  </sodipodi:namedview>
  <metadata
     id="metadata3640">
    <rdf:RDF>
      <cc:Work
         rdf:about="">
        <dc:format>image/svg+xml</dc:format>
        <dc:type
           rdf:resource="http://purl.org/dc/dcmitype/StillImage" />
        <dc:title></dc:title>
      </cc:Work>
    </rdf:RDF>
  </metadata>
  <g
     inkscape:label="Layer 1"
     inkscape:groupmode="layer"
     id="layer1"
     transform="translate(0,-989.36218)"
     style="display:inline">
    <path
       id="path4642"
       transform="matrix(-1,0,0,1,63,989.36218)"
       style="fill:#000000;fill-opacity:1;fill-rule:evenodd;stroke:none;display:inline;filter:url(#filter4632)"
       d="m 16.652092,26.203418 0,1.796582 4.072243,0 0,2.694867 2.275665,0 L 23,28 l 17,0 0,2.694867 2.155894,0 0,-2.694867 3.952471,0 0,-1.736692 -29.456273,-0.05989 z m 20.237642,-2.189159 -3.747385,0 -0.44463,-14.0731944 2.155893,0 2.036122,14.0731944 z m -10.59981,0 3.796996,0 0.275247,-14.013308 -2.155893,0 -1.91635,14.013308 z M 33.296578,30 l 0.658745,24.136882 7.964829,0 L 37.460779,30 33.296578,30 z m -3.328807,0 -0.743436,24.136882 -7.964829,0 L 25.464805,30 29.967771,30 z M 62,62 C 62,62 11,62 6,62 2,62 1,61 1,57 1,52 1,10 1,6 1,2 2,1 6,1 10,1 62,1 62,1 l 0,61 z"
       sodipodi:nodetypes="ccccccccccccccccccccccccccccccccccsssscc" />
  </g>
  <g
     inkscape:groupmode="layer"
     id="layer2"
     inkscape:label="Guide"
     style="display:none;filter:url(#filter4632)" />
</svg>
