<?xml version="1.0" encoding="UTF-8" standalone="no"?>
<!-- Created with Inkscape (http://www.inkscape.org/) -->

<svg
   xmlns:dc="http://purl.org/dc/elements/1.1/"
   xmlns:cc="http://creativecommons.org/ns#"
   xmlns:rdf="http://www.w3.org/1999/02/22-rdf-syntax-ns#"
   xmlns:svg="http://www.w3.org/2000/svg"
   xmlns="http://www.w3.org/2000/svg"
   xmlns:xlink="http://www.w3.org/1999/xlink"
   xmlns:sodipodi="http://sodipodi.sourceforge.net/DTD/sodipodi-0.dtd"
   xmlns:inkscape="http://www.inkscape.org/namespaces/inkscape"
   width="72"
   height="72"
   id="svg2"
   version="1.1"
   inkscape:version="0.47 r22583"
   sodipodi:docname="logo.svg"
   inkscape:export-filename="/home/chrisf/workspace/Cycloid/assets/logo.png"
   inkscape:export-xdpi="90"
   inkscape:export-ydpi="90">
  <defs
     id="defs4">
    <linearGradient
       id="linearGradient5287">
      <stop
         style="stop-color:#6c62ff;stop-opacity:1;"
         offset="0"
         id="stop5289" />
      <stop
         style="stop-color:#1101ff;stop-opacity:1;"
         offset="1"
         id="stop5291" />
    </linearGradient>
    <linearGradient
       id="linearGradient5277">
      <stop
         style="stop-color:#a6a6a6;stop-opacity:1;"
         offset="0"
         id="stop5279" />
      <stop
         id="stop5285"
         offset="0.5"
         style="stop-color:#d4d4d4;stop-opacity:1;" />
      <stop
         style="stop-color:#3a3a3a;stop-opacity:1;"
         offset="1"
         id="stop5281" />
    </linearGradient>
    <marker
       inkscape:stockid="TriangleInM"
       orient="auto"
       refY="0.0"
       refX="0.0"
       id="TriangleInM"
       style="overflow:visible">
      <path
         id="path3821"
         d="M 5.77,0.0 L -2.88,5.0 L -2.88,-5.0 L 5.77,0.0 z "
         style="fill-rule:evenodd;stroke:#000000;stroke-width:1.0pt;marker-start:none"
         transform="scale(-0.4)" />
    </marker>
    <marker
       inkscape:stockid="TriangleInL"
       orient="auto"
       refY="0.0"
       refX="0.0"
       id="TriangleInL"
       style="overflow:visible">
      <path
         id="path3818"
         d="M 5.77,0.0 L -2.88,5.0 L -2.88,-5.0 L 5.77,0.0 z "
         style="fill-rule:evenodd;stroke:#000000;stroke-width:1.0pt;marker-start:none"
         transform="scale(-0.8)" />
    </marker>
    <marker
       inkscape:stockid="TriangleOutL"
       orient="auto"
       refY="0.0"
       refX="0.0"
       id="TriangleOutL"
       style="overflow:visible">
      <path
         id="path3827"
         d="M 5.77,0.0 L -2.88,5.0 L -2.88,-5.0 L 5.77,0.0 z "
         style="fill-rule:evenodd;stroke:#000000;stroke-width:1.0pt;marker-start:none"
         transform="scale(0.8)" />
    </marker>
    <marker
       inkscape:stockid="Arrow2Lstart"
       orient="auto"
       refY="0.0"
       refX="0.0"
       id="Arrow2Lstart"
       style="overflow:visible">
      <path
         id="path3702"
         style="font-size:12.0;fill-rule:evenodd;stroke-width:0.62500000;stroke-linejoin:round"
         d="M 8.7185878,4.0337352 L -2.2072895,0.016013256 L 8.7185884,-4.0017078 C 6.9730900,-1.6296469 6.9831476,1.6157441 8.7185878,4.0337352 z "
         transform="scale(1.1) translate(1,0)" />
    </marker>
    <marker
       inkscape:stockid="Arrow1Lend"
       orient="auto"
       refY="0.0"
       refX="0.0"
       id="Arrow1Lend"
       style="overflow:visible;">
      <path
         id="path3687"
         d="M 0.0,0.0 L 5.0,-5.0 L -12.5,0.0 L 5.0,5.0 L 0.0,0.0 z "
         style="fill-rule:evenodd;stroke:#000000;stroke-width:1.0pt;marker-start:none;"
         transform="scale(0.8) rotate(180) translate(12.5,0)" />
    </marker>
    <inkscape:perspective
       sodipodi:type="inkscape:persp3d"
       inkscape:vp_x="0 : 526.18109 : 1"
       inkscape:vp_y="0 : 1000 : 0"
       inkscape:vp_z="744.09448 : 526.18109 : 1"
       inkscape:persp3d-origin="372.04724 : 350.78739 : 1"
       id="perspective10" />
    <inkscape:perspective
       id="perspective3675"
       inkscape:persp3d-origin="326.5 : 126.33333 : 1"
       inkscape:vp_z="653 : 189.5 : 1"
       inkscape:vp_y="0 : 1000 : 0"
       inkscape:vp_x="0 : 189.5 : 1"
       sodipodi:type="inkscape:persp3d" />
    <radialGradient
       inkscape:collect="always"
       xlink:href="#linearGradient5287"
       id="radialGradient3699"
       cx="37"
       cy="27.460674"
       fx="37"
       fy="27.460674"
       r="60.5"
       gradientTransform="matrix(1.9168114,-0.05637688,0.01652895,0.56198347,-34.375917,14.6535)"
       gradientUnits="userSpaceOnUse" />
  </defs>
  <sodipodi:namedview
     id="base"
     pagecolor="#000000"
     bordercolor="#666666"
     borderopacity="1.0"
     inkscape:pageopacity="0"
     inkscape:pageshadow="2"
     inkscape:zoom="11.313708"
     inkscape:cx="28.283621"
     inkscape:cy="36.676393"
     inkscape:document-units="px"
     inkscape:current-layer="layer1"
     showgrid="true"
     inkscape:window-width="1890"
     inkscape:window-height="1089"
     inkscape:window-x="5"
     inkscape:window-y="49"
     inkscape:window-maximized="0"
     gridtolerance="10"
     showguides="true"
     inkscape:guide-bbox="true">
    <inkscape:grid
       type="xygrid"
       id="grid2816"
       empspacing="5"
       visible="true"
       enabled="true"
       snapvisiblegridlinesonly="false" />
  </sodipodi:namedview>
  <metadata
     id="metadata7">
    <rdf:RDF>
      <cc:Work
         rdf:about="">
        <dc:format>image/svg+xml</dc:format>
        <dc:type
           rdf:resource="http://purl.org/dc/dcmitype/StillImage" />
        <dc:title></dc:title>
      </cc:Work>
    </rdf:RDF>
  </metadata>
  <g
     inkscape:label="Layer 1"
     inkscape:groupmode="layer"
     id="layer1"
     transform="translate(0,-980.36218)">
    <rect
       style="color:#000000;fill:none;fill-opacity:1;fill-rule:evenodd;stroke:#ffffff;stroke-width:1.72532438999999993;stroke-linecap:butt;stroke-linejoin:round;stroke-miterlimit:4;stroke-opacity:1;stroke-dasharray:none;stroke-dashoffset:0;marker:none;visibility:visible;display:inline;overflow:visible;enable-background:accumulate"
       id="rect2818"
       width="54"
       height="53.999996"
       x="9"
       y="989.36218"
       ry="2"
       inkscape:export-filename="/home/chrisf/workspace/Cycloid/res/drawable/icon.png"
       inkscape:export-xdpi="75"
       inkscape:export-ydpi="75" />
    <path
       id="path3667"
       d="m 42.607976,1021.2772 5.596655,-0.9719 -3.527245,-4.8747 c -1.828294,1.696 -2.05565,3.7319 -2.06941,5.8466 z m -1.539543,0.3565 c -0.0091,-0.2113 -0.04097,-0.5509 -0.04097,-0.7889 0,-2.4121 0.733374,-4.756 2.724028,-6.7044 l -2.07321,-2.6407 -3.208753,10.4145 2.598886,-0.2805 z m -12.316012,-10.3649 0.177952,-0.5796 11.42873,-0.014 -3.040231,9.8057 -0.131043,-1.0229 0.349618,0 -0.04368,-0.6511 -1.529782,0 0.04361,0.6046 0.393392,0 0.0874,1.1159 c 0,0 -7.692208,-9.2102 -7.735975,-9.2566 z m -5.061684,9.4192 c 1.534826,-1.2968 2.729469,-2.5332 3.590935,-5.0068 1.359756,1.3122 2.135457,3.2105 2.135457,5.1636 0,3.8787 -2.973532,7.0422 -6.619308,7.0422 -3.645776,0 -6.619371,-3.1635 -6.619371,-7.0422 0,-3.8787 2.973531,-7.0425 6.619308,-7.0425 1.163581,0 2.352981,0.3577 3.312074,0.9602 -0.649177,2.1825 -1.280733,3.3082 -3.278202,5.0188 -0.484853,0.021 -0.853605,0.4357 -0.853605,0.9301 0,0.512 0.392669,0.9299 0.87411,0.9299 0.481449,0 0.838602,-0.4179 0.838602,-0.9533 z m 19.151801,2.0854 c 0.748705,2.968 3.411996,5.1138 6.359652,5.1138 3.645904,0 6.619433,-3.1637 6.619433,-7.0424 0,-3.8787 -2.973593,-7.0425 -6.619433,-7.0425 -1.163588,0 -2.509973,0.2921 -3.492132,0.904 l 3.592767,5.075 c 0.439452,0.014 0.821958,0.4251 0.821958,0.9301 0,0.512 -0.392727,0.9299 -0.874178,0.9299 -0.133204,0 -0.273155,-0.036 -0.391354,-0.096 l -6.016712,1.2276 z m -16.260101,-9.641 2.344858,-6.8825 -0.743076,-1.3483 1.486082,-1.7207 3.190532,0 0.04368,0.9766 -2.797155,0 -0.568195,0.6511 0.655603,1.2554 -0.824382,3.1087 11.450218,0 0.174945,-0.5686 c -0.920309,-0.1279 -2.507548,-0.7306 -2.886654,-1.0809 -0.379103,-0.3504 -0.04709,-0.6725 0.384673,-0.6875 2.259946,-0.103 5.617366,-0.3035 6.255206,-0.3067 0.637786,0 0.703041,0.3384 0.276171,0.8352 -0.426996,0.4969 -0.800072,0.9441 -2.417586,1.2108 l -0.437088,1.2556 2.70955,3.571 c 1.276998,-0.8247 2.821584,-1.2539 4.322406,-1.2539 4.502593,0 8.174838,3.9069 8.174838,8.6972 0,4.7903 -3.672245,8.6974 -8.174838,8.6974 -3.704154,0 -6.961261,-2.718 -7.918585,-6.4743 l -2.489593,0.4759 c -0.106541,0.3123 -0.35506,0.5518 -0.651801,0.7393 l 0.444164,2.2407 0.568199,0 0.04361,0.6045 -1.791995,0.094 0,-0.651 0.437157,0 -0.541463,-2.2393 c -0.805315,-0.1408 -1.227335,-0.8738 -0.98753,-1.602 l -8.133166,-9.7864 -0.364227,1.0499 c 1.974007,1.6546 3.155481,4.2026 3.155481,6.8525 0,4.7904 -3.672245,8.6973 -8.174767,8.6973 -4.502529,0 -8.174772,-3.9073 -8.174772,-8.6975 0,-4.7904 3.672243,-8.6972 8.174772,-8.6972 1.309235,0 2.650443,0.3397 3.784678,0.9846 z"
       clip-rule="evenodd"
       style="fill:#ffffff;fill-opacity:1;fill-rule:evenodd;stroke:none" />
    <path
       style="fill:none;stroke:#000000;stroke-width:1px;stroke-linecap:butt;stroke-linejoin:miter;stroke-opacity:1"
       d="m 8,978.36218 c 0,-3 0,-3 0,-3"
       id="path2845" />
    <use
       x="0"
       y="0"
       xlink:href="#path2845"
       id="use2847"
       transform="translate(56,0)"
       width="72"
       height="72" />
    <path
       style="fill:none;stroke:#000000;stroke-width:1px;stroke-linecap:butt;stroke-linejoin:miter;stroke-opacity:1"
       d="M -2,8 C -5,8 -5,8 -5,8"
       id="path2849"
       transform="translate(0,980.36218)" />
    <path
       style="fill:none;stroke:#000000;stroke-width:1px;stroke-linecap:butt;stroke-linejoin:miter;stroke-opacity:1"
       d="m 74,8 c 3,0 3,0 3,0"
       id="path2851"
       transform="translate(0,980.36218)" />
    <path
       style="fill:none;stroke:#000000;stroke-width:1px;stroke-linecap:butt;stroke-linejoin:miter;stroke-opacity:1"
       d="m 64,74 c 0,3 0,3 0,3"
       id="path2853"
       transform="translate(0,980.36218)" />
    <path
       style="fill:none;stroke:#000000;stroke-width:1px;stroke-linecap:butt;stroke-linejoin:miter;stroke-opacity:1"
       d="m 74,64 c 3,0 3,0 3,0"
       id="path2855"
       transform="translate(0,980.36218)" />
  </g>
</svg>
