<?xml version="1.0" encoding="UTF-8" standalone="no"?>
<!-- Created with Inkscape (http://www.inkscape.org/) -->

<svg
   xmlns:dc="http://purl.org/dc/elements/1.1/"
   xmlns:cc="http://creativecommons.org/ns#"
   xmlns:rdf="http://www.w3.org/1999/02/22-rdf-syntax-ns#"
   xmlns:svg="http://www.w3.org/2000/svg"
   xmlns="http://www.w3.org/2000/svg"
   xmlns:xlink="http://www.w3.org/1999/xlink"
   xmlns:sodipodi="http://sodipodi.sourceforge.net/DTD/sodipodi-0.dtd"
   xmlns:inkscape="http://www.inkscape.org/namespaces/inkscape"
   width="63"
   height="63"
   id="svg3635"
   version="1.1"
   inkscape:version="0.47 r22583"
   sodipodi:docname="quiet.svg"
   inkscape:export-filename="/home/chrisf/workspace/Cycloid/assets/quiet.png"
   inkscape:export-xdpi="61.967213"
   inkscape:export-ydpi="61.967213">
  <defs
     id="defs3637">
    <inkscape:perspective
       sodipodi:type="inkscape:persp3d"
       inkscape:vp_x="0 : 526.18109 : 1"
       inkscape:vp_y="0 : 1000 : 0"
       inkscape:vp_z="744.09448 : 526.18109 : 1"
       inkscape:persp3d-origin="372.04724 : 350.78739 : 1"
       id="perspective3643" />
    <inkscape:perspective
       id="perspective3655"
       inkscape:persp3d-origin="0.5 : 0.33333333 : 1"
       inkscape:vp_z="1 : 0.5 : 1"
       inkscape:vp_y="0 : 1000 : 0"
       inkscape:vp_x="0 : 0.5 : 1"
       sodipodi:type="inkscape:persp3d" />
  </defs>
  <sodipodi:namedview
     id="base"
     pagecolor="#ffffff"
     bordercolor="#666666"
     borderopacity="1.0"
     inkscape:pageopacity="1"
     inkscape:pageshadow="2"
     inkscape:zoom="11.807561"
     inkscape:cx="30.236123"
     inkscape:cy="24.844156"
     inkscape:document-units="px"
     inkscape:current-layer="layer1"
     showgrid="true"
     gridtolerance="10"
     inkscape:window-width="1919"
     inkscape:window-height="1173"
     inkscape:window-x="0"
     inkscape:window-y="1"
     inkscape:window-maximized="1">
    <inkscape:grid
       type="xygrid"
       id="grid3645"
       empspacing="5"
       visible="true"
       enabled="true"
       snapvisiblegridlinesonly="true"
       dotted="true" />
  </sodipodi:namedview>
  <metadata
     id="metadata3640">
    <rdf:RDF>
      <cc:Work
         rdf:about="">
        <dc:format>image/svg+xml</dc:format>
        <dc:type
           rdf:resource="http://purl.org/dc/dcmitype/StillImage" />
        <dc:title></dc:title>
      </cc:Work>
    </rdf:RDF>
  </metadata>
  <g
     inkscape:label="Layer 1"
     inkscape:groupmode="layer"
     id="layer1"
     transform="translate(0,-989.36218)"
     style="display:inline;opacity:1">
    <path
       id="path4447"
       transform="translate(0,989.36218)"
       style="color:#000000;fill:#000000;fill-opacity:1;fill-rule:evenodd;stroke:none;stroke-width:0.50000000000000000;marker:none;visibility:visible;display:inline;overflow:visible;enable-background:accumulate"
       d="m 41,44 0,3 c 0,1 1,2 2,2 l 2,0 c 1,0 2,-1 2,-2 l 0,-3 2,0 c 0,0 0,-6 0,-13 0,-2 -2,-2 -2,-2 L 45,25 26,44 M 43.29943,26.688688 41,29 44,29 43.29943,26.688688 z M 46,36 c 0,1 -1,2 -2,2 -1,0 -2,-1 -2,-2 0,-1 1,-2 2,-2 1,0 2,1 2,2 l -2,0 2,0 z m -25,0 c 0,1 -1,2 -2,2 -1,0 -2,-1 -2,-2 0,-1 1,-2 2,-2 1,0 2,1 2,2 l -2,0 2,0 z m 11,-7 7,-7 -17,0 -3,7 13,0 z m 9,-9 -9.5,0 -10.5,0 -5,9 c 0,0 -2,0 -2,2 0,6 0,13 0,13 l 2,0 0,1 M 62,62 C 62,62 11,62 6,62 2,62 1,61 1,57 1,52 1,10 1,6 1,2 2,1 6,1 10,1 62,1 62,1 l 0,61 z"
       sodipodi:nodetypes="ccccccccccccccccsssccccssscccccccccccccccccsssscc" />
    <rect
       style="color:#000000;fill:#ffffff;fill-opacity:1;fill-rule:evenodd;stroke:none;stroke-width:0.5;marker:none;visibility:visible;display:inline;overflow:visible;enable-background:accumulate"
       id="rect4476"
       width="3.5355351"
       height="47.376163"
       x="-747.66797"
       y="-726.45477"
       transform="matrix(-0.70710678,-0.70710678,0.70710678,-0.70710678,0,0)"
       ry="0" />
  </g>
  <g
     inkscape:groupmode="layer"
     id="layer2"
     inkscape:label="Guide"
     style="display:none">
    <image
       transform="translate(0,-989.36218)"
       y="989.36218"
       x="0"
       id="image3657"
       height="63"
       width="63"
       xlink:href="file:///home/chrisf/work/maps-sdk-7/res/drawable-240dpi/mode_driving_off.9.png" />
  </g>
</svg>
