<?xml version="1.0" encoding="utf-8"?>
<!-- Generator: Adobe Illustrator 18.1.0, SVG Export Plug-In . SVG Version: 6.00 Build 0)  -->
<svg version="1.1" id="Layer_1" xmlns="http://www.w3.org/2000/svg" xmlns:xlink="http://www.w3.org/1999/xlink" x="0px" y="0px"
	 viewBox="0 0 38 42" style="enable-background:new 0 0 38 42;" xml:space="preserve">
<style type="text/css">
	.st0{fill:#FFFFFF;}
	.st1{fill:#C62236;}
	.st2{opacity:0.55;}
	.st3{fill:#4C535B;}
	.st4{clip-path:url(#SVGID_2_);}
	.st5{fill:none;stroke:#999999;stroke-linecap:round;stroke-miterlimit:10;}
</style>
<g>
	<path class="st0" d="M19,42c-2.4,0-19-9.3-19-23C0,8.5,8.5,0,19,0s19,8.5,19,19C38,32.7,21.4,42,19,42z"/>
</g>
<g>
	<path class="st1" d="M37,19c0,13.1-16,22-18,22S1,32,1,19C1,9.1,9.1,1,19,1S37,9.1,37,19z"/>
</g>
<g class="st2">
	<circle class="st3" cx="19" cy="20" r="15"/>
</g>
<g>
	<circle class="st0" cx="19" cy="19" r="15"/>
</g>
<g>
	<defs>
		<circle id="SVGID_1_" cx="19" cy="19" r="15"/>
	</defs>
	<clipPath id="SVGID_2_">
		<use xlink:href="#SVGID_1_"  style="overflow:visible;"/>
	</clipPath>
	<g class="st4">
		<g>
			<path class="st3" d="M10.1,20.5C9.5,19.9,9,18.7,9,17.9v-7.4C9,9.7,9.7,9,10.5,9h7.4c0.8,0,2,0.5,2.6,1.1l9.4,9.4
				c0.6,0.6,0.6,1.5,0,2.1l-8.3,8.3c-0.6,0.6-1.5,0.6-2.1,0L10.1,20.5z"/>
		</g>
		<path class="st0" d="M12.9,11.1l-4-4C8.6,6.9,8.3,6.8,8,6.8S7.4,6.9,7.1,7.1c-0.5,0.5-0.5,1.3,0,1.8l4,4c0.2,0.2,0.5,0.4,0.9,0.4
			s0.6-0.1,0.9-0.4C13.4,12.4,13.4,11.6,12.9,11.1z"/>
		<line class="st5" x1="12" y1="12" x2="8" y2="8"/>
		<g>
			<g>
				<path class="st0" d="M17.6,17.6l-0.9,0.2c0,0.1,0,0.2-0.1,0.3l0.7,0.7C17.4,18.3,17.5,17.9,17.6,17.6z"/>
				<path class="st0" d="M15.5,19.1c-0.7,0.3-1.5,0.1-2-0.4c-0.8-0.8-0.8-2,0-2.7c0.8-0.8,2-0.8,2.7,0c0.1,0.1,0.1,0.2,0.2,0.2
					l0.9-0.2c-0.1-0.2-0.3-0.5-0.5-0.7c-1.1-1.1-2.9-1.1-4,0c-1.1,1.1-1.1,2.9,0,4c0.9,0.9,2.3,1,3.3,0.5L15.5,19.1z"/>
			</g>
			<path class="st0" d="M22.7,21.3c-0.2-0.2-0.4-0.3-0.6-0.5c-0.1,0.3-0.2,0.6-0.3,0.8c0.1,0.1,0.2,0.2,0.3,0.3c0.8,0.8,0.8,2,0,2.7
				s-2,0.8-2.7,0c-0.8-0.8-0.8-2,0-2.7c0.2-0.2,0.5-0.4,0.8-0.5c0.1-0.3,0.2-0.6,0.3-0.9c-0.6,0.1-1.3,0.3-1.7,0.8
				c-1.1,1.1-1.1,2.9,0,4c1.1,1.1,2.9,1.1,4,0C23.8,24.1,23.8,22.4,22.7,21.3z"/>
			<path class="st0" d="M21.2,23.2c0,0-0.2-2.4,2.1-4.8c0.3,0.2,0.8,0.4,1.4,0.4c0.2,0,0.4-0.2,0.4-0.4c0-0.2-0.2-0.4-0.4-0.4
				c-0.8,0-1.2-0.4-1.2-0.4c-0.2-0.2-0.4-0.2-0.6,0c-0.2,0.2-0.4,0.5-0.6,0.7l-2.1-2.1l0.4-0.8l0.4,0.3c0.2,0.1,0.4,0.1,0.5,0
				c0.1-0.1,0.1-0.4,0-0.5L20,13.6c-0.1-0.1-0.4-0.1-0.5,0l-0.3,0.3c-0.1,0.1-0.1,0.3,0,0.5l0.5,0.4L19.2,16
				c-1.1,0.2-4.2,0.8-4.5,0.9c-0.4,0.1-0.4,0.5-0.2,0.7c0,0,0,0,0,0c0,0,0,0,0,0c0,0,0,0,0,0l3,3c0.1,0.1,0.2,0.2,0.4,0.1l3.4-1.1
				c-1.1,2-1,3.6-1,3.7c0,0.1,0.1,0.2,0.1,0.3c0.1,0.1,0.2,0.1,0.3,0.1C21,23.7,21.2,23.5,21.2,23.2z M15.7,17.6l3.1-0.6l-1.2,2.6
				L15.7,17.6z M18.6,19.6l1.2-2.6l1.7,1.7L18.6,19.6z"/>
		</g>
	</g>
</g>
</svg>
