<?xml version="1.0" encoding="utf-8"?>
<!-- Generator: Adobe Illustrator 18.1.0, SVG Export Plug-In . SVG Version: 6.00 Build 0)  -->
<svg version="1.1" id="Layer_1" xmlns="http://www.w3.org/2000/svg" xmlns:xlink="http://www.w3.org/1999/xlink" x="0px" y="0px"
	 viewBox="0 0 38 42" style="enable-background:new 0 0 38 42;" xml:space="preserve">
<style type="text/css">
	.st0{fill:#FFFFFF;}
	.st1{fill:#2C9174;}
	.st2{opacity:0.55;}
	.st3{fill:#4C535B;}
	.st4{fill:#7F8C4B;}
	.st5{fill-rule:evenodd;clip-rule:evenodd;fill:none;stroke:#4C535B;stroke-width:0.75;stroke-miterlimit:10;}
	.st6{fill-rule:evenodd;clip-rule:evenodd;fill:#4C535B;}
</style>
<g>
	<path class="st0" d="M19,42c-2.4,0-19-9.3-19-23C0,8.5,8.5,0,19,0s19,8.5,19,19C38,32.7,21.4,42,19,42z"/>
</g>
<g>
	<path class="st1" d="M37,19c0,13.1-16,22-18,22S1,32,1,19C1,9.1,9.1,1,19,1S37,9.1,37,19z"/>
</g>
<g class="st2">
	<circle class="st3" cx="19" cy="20" r="15"/>
</g>
<g>
	<circle class="st0" cx="19" cy="19" r="15"/>
</g>
<polygon class="st4" points="19,27.4 15.9,29 16.5,25.6 14,23.1 17.5,22.6 19,19.5 20.5,22.6 24,23.1 21.5,25.6 22.1,29 "/>
<g>
	<path class="st5" d="M25,17"/>
	<path class="st3" d="M25,13c-0.2,0-0.5,0-0.7,0.1c0.1,0.3,0.2,0.6,0.3,1c0.1,0,0.3,0,0.4,0c1.7,0,3,1.3,3,3s-1.3,3-3,3
		c-1.7,0-3-1.3-3-3c0-0.8,0.3-1.5,0.8-2c-0.1-0.4-0.3-0.7-0.4-1c-0.9,0.7-1.4,1.8-1.4,3c0,2.2,1.8,4,4,4c2.2,0,4-1.8,4-4
		S27.2,13,25,13z"/>
	<g>
		<path class="st3" d="M16.1,14.4l-0.6,0.8c0.2,0.2,0.3,0.5,0.4,0.7h1C16.7,15.4,16.4,14.9,16.1,14.4z"/>
		<path class="st3" d="M15.8,18c-0.4,1.2-1.5,2-2.8,2c-1.7,0-3-1.3-3-3s1.3-3,3-3c0.3,0,0.6,0.1,0.8,0.1l0.6-0.9
			C14,13.1,13.5,13,13,13c-2.2,0-4,1.8-4,4s1.8,4,4,4c1.9,0,3.4-1.3,3.9-3H15.8z"/>
	</g>
	<path class="st6" d="M27,9.8c-0.2,0-0.6-0.5-0.8-0.9c0-0.1-0.1-0.1-0.2-0.1c0,0,0,0,0,0c-0.1,0-0.2,0.1-0.2,0.1l-0.4,0.7
		c-0.2-0.1-0.5-0.1-0.7-0.1H24c-0.8,0-1.5,0.7-1.5,1.5c0,0,0,0.2,0,0.5h-5.3l-0.6-1.7l1-0.1c0.2,0,0.4-0.2,0.4-0.4
		C18,9.1,17.8,9,17.6,9h-3.2c-0.2,0-0.3,0.1-0.1,0.3c0.2,0.2,0.4,0.6,1.3,0.6l0.6,1.7c0,0-3.4,4.8-3.6,5s0,0.8,0.4,0.8c0,0,0,0,0,0
		l0,0l0,0h5.5c0.2,0,0.4-0.2,0.6-0.4c0.1-0.2,3.5-4.5,3.5-4.5c0.2,1.2,0.7,3,2,4.7c0.1,0.1,0.3,0.2,0.4,0.2c0.1,0,0.2,0,0.3-0.1
		c0.2-0.2,0.3-0.5,0.1-0.7c-2-2.8-1.9-5.7-1.9-5.7c0-0.3,0.3-0.5,0.5-0.5h0.7c0.4,0,0.6,0.1,0.6,0.2c0.1,0.1,0.1,0.1,0.1,0.2
		c0,0.3-0.3,0.6-0.7,0.6c-0.3,0-0.5,0.2-0.5,0.5s0.2,0.5,0.5,0.5c1,0,1.7-0.8,1.7-1.6c0-0.4-0.2-0.7-0.5-1c0,0-0.1,0-0.1,0L26,9.5
		c0.2,0.3,0.6,0.7,1,0.7c0.1,0,0.2-0.1,0.2-0.2S27.1,9.8,27,9.8z M14,16.5l2.6-3.7l1.2,3.7H14z M18.7,16l-1.1-3.5h3.9L18.7,16z"/>
</g>
</svg>
