<?xml version="1.0" encoding="utf-8"?>
<!-- Generator: Adobe Illustrator 18.1.0, SVG Export Plug-In . SVG Version: 6.00 Build 0)  -->
<svg version="1.1" id="Layer_1" xmlns="http://www.w3.org/2000/svg" xmlns:xlink="http://www.w3.org/1999/xlink" x="0px" y="0px"
	 viewBox="0 0 38 42" style="enable-background:new 0 0 38 42;" xml:space="preserve">
<style type="text/css">
	.st0{fill:#FFFFFF;}
	.st1{fill:#E5C420;}
	.st2{opacity:0.25;}
	.st3{fill:#4C535B;}
	.st4{clip-path:url(#SVGID_2_);}
	.st5{fill-rule:evenodd;clip-rule:evenodd;fill:#999999;}
	.st6{clip-path:url(#SVGID_2_);fill:#4C535B;}
</style>
<g>
	<path class="st0" d="M19,42c-2.4,0-19-9.3-19-23C0,8.5,8.5,0,19,0s19,8.5,19,19C38,32.7,21.4,42,19,42z"/>
</g>
<g>
	<path class="st1" d="M37,19c0,13.1-16,22-18,22S1,32,1,19C1,9.1,9.1,1,19,1S37,9.1,37,19z"/>
</g>
<g class="st2">
	<circle class="st3" cx="19" cy="20" r="15"/>
</g>
<g>
	<circle class="st0" cx="19" cy="19" r="15"/>
</g>
<g>
	<defs>
		<circle id="SVGID_1_" cx="19" cy="19" r="14"/>
	</defs>
	<clipPath id="SVGID_2_">
		<use xlink:href="#SVGID_1_"  style="overflow:visible;"/>
	</clipPath>
	<g class="st4">
		<path class="st5" d="M14.5,26c-0.3,0-0.6-0.2-0.7-0.5L13.2,24c-0.1-0.3-0.4-0.5-0.7-0.5h-11C1.2,23.5,1,23.7,1,24v8.5
			C1,32.8,1.2,33,1.5,33h13c0.3,0,0.7,0,1,0h21c0.3,0,0.5-0.2,0.5-0.5v-6c0-0.3-0.2-0.5-0.5-0.5H14.5z"/>
	</g>
	<path class="st6" d="M27.8,15.9l-0.1-2.5c-0.1-1.9-1.8-3.6-3.9-4l-5.9-1c-2.1-0.4-4.3,0.7-5,2.5l-0.9,2.4c0,0-2-0.1-2.4,1.8
		l-0.7,3.9c-0.1,0.5,0.3,1.1,0.8,1.2l-0.3,2c-0.1,0.5,0.3,1.1,0.8,1.2l1,0.2c0.5,0.1,1.1-0.3,1.2-0.8l0.3-2l11.8,2l-0.3,2
		c-0.1,0.5,0.3,1.1,0.8,1.2l1,0.2c0.5,0.1,1.1-0.3,1.2-0.8l0.3-2c0.5,0.1,1.1-0.3,1.2-0.8l0.7-3.9C29.8,16.5,27.8,15.9,27.8,15.9z
		 M14.9,11.6c0.3-0.9,1.6-1.4,2.8-1.3l5.9,1c1.1,0.2,2.2,1.2,2.2,2.1l0.1,2.3l-11.8-2L14.9,11.6z M12.7,18.6
		c-0.8-0.1-1.4-0.9-1.2-1.7c0.1-0.8,0.9-1.4,1.7-1.2c0.8,0.1,1.4,0.9,1.2,1.7C14.3,18.2,13.5,18.8,12.7,18.6z M24.3,19.1
		c0.1-0.8,0.9-1.4,1.7-1.2c0.8,0.1,1.4,0.9,1.2,1.7c-0.1,0.8-0.9,1.4-1.7,1.2C24.7,20.7,24.2,19.9,24.3,19.1z"/>
</g>
</svg>
