<?xml version="1.0" encoding="utf-8"?>
<!-- Generator: Adobe Illustrator 18.1.0, SVG Export Plug-In . SVG Version: 6.00 Build 0)  -->
<svg version="1.1" id="Layer_1" xmlns="http://www.w3.org/2000/svg" xmlns:xlink="http://www.w3.org/1999/xlink" x="0px" y="0px"
	 viewBox="0 0 38 42" style="enable-background:new 0 0 38 42;" xml:space="preserve">
<style type="text/css">
	.st0{fill:#FFFFFF;}
	.st1{fill:#E5C420;}
	.st2{opacity:0.25;}
	.st3{fill:#4C535B;}
	.st4{clip-path:url(#SVGID_2_);}
	.st5{fill:#999999;}
</style>
<g>
	<path class="st0" d="M19,42c-2.4,0-19-9.3-19-23C0,8.5,8.5,0,19,0s19,8.5,19,19C38,32.7,21.4,42,19,42z"/>
</g>
<g>
	<path class="st1" d="M37,19c0,13.1-16,22-18,22S1,32,1,19C1,9.1,9.1,1,19,1S37,9.1,37,19z"/>
</g>
<g class="st2">
	<circle class="st3" cx="19" cy="20" r="15"/>
</g>
<g>
	<circle class="st0" cx="19" cy="19" r="15"/>
</g>
<g>
	<circle class="st0" cx="19" cy="19" r="14"/>
</g>
<g>
	<defs>
		<circle id="SVGID_1_" cx="19" cy="19" r="14"/>
	</defs>
	<clipPath id="SVGID_2_">
		<use xlink:href="#SVGID_1_"  style="overflow:visible;"/>
	</clipPath>
	<g class="st4">
		<g>
			<path class="st5" d="M10.9,19.1c-1.4,0-2.4,1.1-2.4,2.4S9.6,24,10.9,24s2.4-1.1,2.4-2.5S12.3,19.1,10.9,19.1z M10.9,23
				c-0.8,0-1.4-0.6-1.4-1.4c0-0.8,0.6-1.4,1.4-1.4c0.8,0,1.4,0.6,1.4,1.4C12.4,22.3,11.7,23,10.9,23z"/>
			<path class="st5" d="M26.4,19.1c-1.4,0-2.5,1.1-2.5,2.4S25,24,26.4,24s2.4-1.1,2.4-2.5S27.7,19.1,26.4,19.1z M26.4,23
				c-0.8,0-1.4-0.6-1.4-1.4c0-0.8,0.6-1.4,1.4-1.4s1.4,0.6,1.4,1.4C27.8,22.3,27.1,23,26.4,23z"/>
			<path class="st5" d="M31.6,19.9c0-0.6,0-1.2,0-1.6c0-2.2-3.7-3-5.3-3.1c-1.6-0.1-1.9-1-2.2-1.5c-0.4-0.6-2.4-3.7-6.9-3.7
				c-0.1,0-0.2,0-0.2,0c-0.3,0-0.4,0-0.4,0c-0.4,0-1,0-2.2,0c-5.1,0-6,4.2-6,4.2c-0.3,1-2.7,1.4-2.7,4.9v0.8C5.3,20,5,20.4,5,20.9
				c0,1.1,0.7,1,0.7,1h2.1c0-0.1,0-0.2,0-0.4c0-1.7,1.4-3.1,3.1-3.1s3.2,1.4,3.2,3.1c0,0.1,0,0.2,0,0.4h9.2c0-0.1,0-0.2,0-0.4
				c0-1.7,1.4-3.1,3.1-3.1c1.7,0,3.1,1.4,3.1,3.1c0,0.1,0,0.2,0,0.4h2.1c0,0,0.7,0,0.7-1C32.3,20.4,32,20,31.6,19.9z"/>
		</g>
		<path class="st0" d="M15.2,11.8c0-0.4-0.7-0.4-0.7-0.4c-4,0-4.6,3.3-4.7,3.6c0,0-0.1,0.6,1,0.6c1.3,0,3.7,0,3.7,0s0.7,0,0.7-0.7
			S15.2,11.8,15.2,11.8z"/>
		<path class="st0" d="M16.2,11.8c0-0.4,0.7-0.4,0.7-0.4s0.4,0,0.7,0c3.9,0.1,5.5,3.3,5.6,3.6c0,0,0.1,0.6-1,0.6c-1.3,0-5.3,0-5.3,0
			s-0.7,0-0.7-0.7S16.2,11.8,16.2,11.8z"/>
	</g>
	<g class="st4">
		<path class="st0" d="M41.4,30.5c-1.7,0-3.1-0.9-3.8-2.4h-9.9c-0.7,1.5-2.2,2.4-3.9,2.4s-3.1-0.9-3.8-2.4h-2.2
			c-0.2,0-0.8,0-1.3-0.5c-0.4-0.3-1-1-1-2.2c0-0.7,0.3-1.4,0.8-1.9v-0.1c0-3.4,1.8-4.9,2.7-5.7c0.1-0.1,0.3-0.3,0.4-0.4
			c0.5-2.1,2.8-5.8,8.3-5.8H31c3.7,0,6.9,1.7,9.1,4.8c0.1,0.1,0.2,0.2,0.2,0.3c0.3,0.4,0.4,0.7,1.2,0.8c0.8,0.1,7.4,0.8,7.4,5v1.1
			c0.5,0.5,0.8,1.2,0.8,1.9c0,1.2-0.5,1.9-1,2.2c-0.5,0.4-1.1,0.5-1.3,0.5h-2.2C44.5,29.6,43.1,30.5,41.4,30.5z"/>
		<g>
			<g>
				<path class="st3" d="M23.8,23.4c-1.5,0-2.8,1.3-2.8,2.8s1.3,2.8,2.8,2.8s2.8-1.3,2.8-2.8S25.3,23.4,23.8,23.4z M23.8,27.8
					c-0.9,0-1.6-0.7-1.6-1.6c0-0.9,0.7-1.6,1.6-1.6c0.9,0,1.6,0.7,1.6,1.6C25.4,27.1,24.7,27.8,23.8,27.8z"/>
				<path class="st3" d="M41.4,23.4c-1.5,0-2.8,1.3-2.8,2.8s1.3,2.8,2.8,2.8s2.8-1.3,2.8-2.8S42.9,23.4,41.4,23.4z M41.4,27.8
					c-0.9,0-1.6-0.7-1.6-1.6c0-0.9,0.7-1.6,1.6-1.6c0.9,0,1.6,0.7,1.6,1.6C43,27.1,42.3,27.8,41.4,27.8z"/>
				<path class="st3" d="M47.4,24.3c0-0.7,0-1.3,0-1.8c0-2.5-4.3-3.4-6.1-3.5c-1.8-0.2-2.2-1.2-2.5-1.7C38.4,16.6,36,13,31,13
					c-0.1,0-0.2,0-0.3,0c-0.3,0-0.4,0-0.4,0c-0.4,0-1.2,0-2.6,0c-5.8,0-6.8,4.8-6.8,4.8c-0.3,1.1-3.1,1.6-3.1,5.6v0.9
					c-0.5,0.2-0.8,0.6-0.8,1.1c0,1.2,0.8,1.2,0.8,1.2h2.4c0-0.1,0-0.3,0-0.4c0-2,1.6-3.6,3.6-3.6s3.6,1.6,3.6,3.6c0,0.1,0,0.3,0,0.4
					h10.5c0-0.1,0-0.3,0-0.4c0-2,1.6-3.6,3.6-3.6c2,0,3.6,1.6,3.6,3.6c0,0.1,0,0.3,0,0.4h2.4c0,0,0.8,0,0.8-1.2
					C48.2,24.9,47.9,24.4,47.4,24.3z"/>
			</g>
			<path class="st0" d="M28.7,15c0-0.5-0.8-0.4-0.8-0.4c-4.6,0-5.3,3.7-5.4,4.1c0,0-0.1,0.6,1.2,0.6c1.5,0,4.2,0,4.2,0
				s0.8,0,0.8-0.8C28.7,17.7,28.7,15,28.7,15z"/>
			<path class="st0" d="M29.8,15c0-0.5,0.8-0.4,0.8-0.4s0.5,0,0.8,0c4.5,0.1,6.3,3.7,6.4,4.1c0,0,0.1,0.6-1.2,0.6c-1.5,0-6,0-6,0
				s-0.8,0-0.8-0.8C29.8,17.7,29.8,15,29.8,15z"/>
		</g>
	</g>
	<g class="st4">
		<path class="st0" d="M7.4,30.5c-1.7,0-3.1-0.9-3.8-2.4h-9.9c-0.7,1.5-2.2,2.4-3.9,2.4s-3.1-0.9-3.8-2.4h-2.2c-0.2,0-0.8,0-1.3-0.5
			c-0.4-0.3-1-1-1-2.2c0-0.7,0.3-1.4,0.8-1.9v-0.1c0-3.4,1.8-4.9,2.7-5.7c0.1-0.1,0.3-0.3,0.4-0.4c0.5-2.1,2.8-5.8,8.3-5.8H-3
			c3.7,0,6.9,1.7,9.1,4.8c0.1,0.1,0.2,0.2,0.2,0.3c0.3,0.4,0.4,0.7,1.2,0.8c0.8,0.1,7.4,0.8,7.4,5v1.1c0.5,0.5,0.8,1.2,0.8,1.9
			c0,1.2-0.5,1.9-1,2.2c-0.5,0.4-1.1,0.5-1.3,0.5h-2.2C10.5,29.6,9.1,30.5,7.4,30.5z"/>
		<g>
			<path class="st3" d="M-10.2,23.4c-1.5,0-2.8,1.3-2.8,2.8s1.3,2.8,2.8,2.8s2.8-1.3,2.8-2.8S-8.7,23.4-10.2,23.4z M-10.2,27.8
				c-0.9,0-1.6-0.7-1.6-1.6c0-0.9,0.7-1.6,1.6-1.6c0.9,0,1.6,0.7,1.6,1.6C-8.6,27.1-9.3,27.8-10.2,27.8z"/>
			<path class="st3" d="M7.4,23.4c-1.5,0-2.8,1.3-2.8,2.8S5.9,29,7.4,29s2.8-1.3,2.8-2.8S8.9,23.4,7.4,23.4z M7.4,27.8
				c-0.9,0-1.6-0.7-1.6-1.6c0-0.9,0.7-1.6,1.6-1.6S9,25.3,9,26.2C9,27.1,8.3,27.8,7.4,27.8z"/>
			<path class="st3" d="M13.4,24.3c0-0.7,0-1.3,0-1.8c0-2.5-4.3-3.4-6.1-3.5c-1.8-0.2-2.2-1.2-2.5-1.7C4.4,16.6,2,13-3,13
				c-0.1,0-0.2,0-0.3,0c-0.3,0-0.4,0-0.4,0c-0.4,0-1.2,0-2.6,0c-5.8,0-6.8,4.8-6.8,4.8c-0.3,1.1-3.1,1.6-3.1,5.6v0.9
				c-0.5,0.2-0.8,0.6-0.8,1.1c0,1.2,0.8,1.2,0.8,1.2h2.4c0-0.1,0-0.3,0-0.4c0-2,1.6-3.6,3.6-3.6s3.6,1.6,3.6,3.6c0,0.1,0,0.3,0,0.4
				H3.8c0-0.1,0-0.3,0-0.4c0-2,1.6-3.6,3.6-3.6s3.6,1.6,3.6,3.6c0,0.1,0,0.3,0,0.4h2.4c0,0,0.8,0,0.8-1.2
				C14.2,24.9,13.9,24.4,13.4,24.3z"/>
		</g>
		<path class="st0" d="M-5.7,15c0-0.5-0.8-0.4-0.8-0.4c-4.6,0-5.3,3.7-5.4,4.1c0,0-0.1,0.6,1.2,0.6c1.5,0,4.2,0,4.2,0s0.8,0,0.8-0.8
			C-5.7,17.7-5.7,15-5.7,15z"/>
		<path class="st0" d="M-4.6,15c0-0.5,0.8-0.4,0.8-0.4s0.5,0,0.8,0c4.5,0.1,6.3,3.7,6.4,4.1c0,0,0.1,0.6-1.2,0.6c-1.5,0-6,0-6,0
			s-0.8,0-0.8-0.8C-4.6,17.7-4.6,15-4.6,15z"/>
	</g>
</g>
</svg>
