<?xml version="1.0" encoding="utf-8"?>
<!-- Generator: Adobe Illustrator 18.1.0, SVG Export Plug-In . SVG Version: 6.00 Build 0)  -->
<svg version="1.1" id="Layer_1" xmlns="http://www.w3.org/2000/svg" xmlns:xlink="http://www.w3.org/1999/xlink" x="0px" y="0px"
	 viewBox="0 0 38 42" style="enable-background:new 0 0 38 42;" xml:space="preserve">
<style type="text/css">
	.st0{fill:#4C535B;}
	.st1{fill:#FFFFFF;}
	.st2{fill:#C62236;}
	.st3{opacity:0.35;}
</style>
<g>
	<path class="st0" d="M17,41.5c-0.8,0-1.5-0.7-1.5-1.5V2c0-0.8,0.7-1.5,1.5-1.5h4c0.8,0,1.5,0.7,1.5,1.5v38c0,0.8-0.7,1.5-1.5,1.5
		H17z"/>
	<path class="st1" d="M21,1c0.5,0,1,0.5,1,1v38c0,0.5-0.5,1-1,1h-4c-0.5,0-1-0.5-1-1V2c0-0.5,0.5-1,1-1H21 M21,0h-4
		c-1.1,0-2,0.9-2,2v38c0,1.1,0.9,2,2,2h4c1.1,0,2-0.9,2-2V2C23,0.9,22.1,0,21,0L21,0z"/>
</g>
<g>
	<path class="st2" d="M6,32.5c-1.9,0-3.5-1.6-3.5-3.5V9c0-1.9,1.6-3.5,3.5-3.5h26c1.9,0,3.5,1.6,3.5,3.5v20c0,1.9-1.6,3.5-3.5,3.5H6
		z"/>
	<path class="st1" d="M32,6c1.7,0,3,1.3,3,3v20c0,1.6-1.3,3-3,3H6c-1.7,0-3-1.4-3-3V9c0-1.7,1.3-3,3-3H32 M32,5H6C3.8,5,2,6.8,2,9
		v20c0,2.2,1.8,4,4,4h26c2.2,0,4-1.8,4-4V9C36,6.8,34.2,5,32,5L32,5z"/>
</g>
<g>
	<path class="st1" d="M33,29c0,0.5-0.5,1-1,1H6c-0.6,0-1-0.5-1-1V9c0-0.6,0.4-1,1-1h26c0.5,0,1,0.4,1,1V29z"/>
</g>
<g>
	<path class="st0" d="M8,11h6.2c3.3,0,4.4,2.4,4.4,4.1c0,2.9-1.9,4.3-4.7,4.3h-2.2V23H8V11z M11.7,16.5h1.4c0.9,0,2,0,2-1.3
		c0-1.1-0.8-1.2-1.7-1.2h-1.6V16.5z"/>
</g>
<rect x="16" y="33" class="st3" width="6" height="2"/>
<g>
	<g>
		<path class="st0" d="M20.9,22.5l-0.5,0.8c0,0.1,0.1,0.2,0.1,0.2h0.9C21.4,23.1,21.2,22.8,20.9,22.5z"/>
		<path class="st0" d="M20.6,25c-0.3,0.7-1,1.1-1.8,1.1c-1.1,0-1.9-0.9-1.9-1.9c0-1.1,0.9-1.9,1.9-1.9c0.1,0,0.2,0,0.3,0l0.5-0.8
			c-0.3-0.1-0.5-0.1-0.8-0.1c-1.5,0-2.8,1.3-2.8,2.8c0,1.5,1.3,2.8,2.8,2.8c1.3,0,2.3-0.9,2.7-2H20.6z"/>
	</g>
	<path class="st0" d="M27.2,21.4c-0.3,0-0.5,0.1-0.8,0.1c0.1,0.3,0.2,0.6,0.4,0.8c0.1,0,0.3,0,0.4,0c1.1,0,1.9,0.9,1.9,1.9
		c0,1.1-0.9,1.9-1.9,1.9c-1.1,0-1.9-0.9-1.9-1.9c0-0.3,0.1-0.6,0.2-0.9c-0.2-0.3-0.3-0.6-0.4-0.9c-0.4,0.5-0.7,1.1-0.7,1.8
		c0,1.5,1.3,2.8,2.8,2.8c1.5,0,2.8-1.3,2.8-2.8C30,22.7,28.7,21.4,27.2,21.4z"/>
	<path class="st0" d="M27.5,23.9c0,0-1.8-1.6-1.9-4.9c0.3-0.1,0.8-0.3,1.3-0.8c0.2-0.2,0.2-0.4,0-0.6c-0.2-0.2-0.4-0.2-0.6,0
		c-0.5,0.5-1.1,0.6-1.1,0.6c-0.2,0-0.4,0.2-0.4,0.4c0,0.3,0,0.7,0,1h-3l-0.3-0.8l0.5-0.1c0.2,0,0.3-0.2,0.3-0.4
		c0-0.2-0.2-0.4-0.4-0.4h-2.1c-0.2,0-0.4,0.2-0.4,0.4v0.4c0,0.2,0.2,0.3,0.3,0.3l0.7-0.1l0.5,1.3c-0.6,1-2.4,3.5-2.6,3.8
		c-0.2,0.3,0.1,0.7,0.4,0.7c0,0,0,0,0,0c0,0,0,0,0,0c0,0,0,0,0,0H23c0.1,0,0.3-0.1,0.4-0.2l1.6-3.2c0.6,2.2,1.8,3.3,1.9,3.4
		c0.1,0.1,0.2,0.1,0.3,0.1c0.1,0,0.2-0.1,0.3-0.2C27.7,24.4,27.7,24.1,27.5,23.9z M19.6,23.8l1.8-2.6l1,2.6H19.6z M23.1,23.2l-1-2.7
		h2.3L23.1,23.2z"/>
</g>
</svg>
