<?xml version="1.0" encoding="utf-8"?>
<!-- Generator: Adobe Illustrator 18.1.0, SVG Export Plug-In . SVG Version: 6.00 Build 0)  -->
<svg version="1.1" id="Layer_1" xmlns="http://www.w3.org/2000/svg" xmlns:xlink="http://www.w3.org/1999/xlink" x="0px" y="0px"
	 viewBox="0 0 38 42" style="enable-background:new 0 0 38 42;" xml:space="preserve">
<style type="text/css">
	.st0{fill:#FFFFFF;}
	.st1{fill:#E5C420;}
	.st2{opacity:0.25;}
	.st3{fill:#4C535B;}
	.st4{fill:#CE6378;}
</style>
<g>
	<path class="st0" d="M19,42c-2.4,0-19-9.3-19-23C0,8.5,8.5,0,19,0s19,8.5,19,19C38,32.7,21.4,42,19,42z"/>
</g>
<g>
	<path class="st1" d="M37,19c0,13.1-16,22-18,22S1,32,1,19C1,9.1,9.1,1,19,1S37,9.1,37,19z"/>
</g>
<g class="st2">
	<circle class="st3" cx="19" cy="20" r="15"/>
</g>
<g>
	<circle class="st0" cx="19" cy="19" r="15"/>
</g>
<g>
	<circle class="st4" cx="19" cy="19" r="14"/>
</g>
<rect x="10" y="26" class="st0" width="4" height="1"/>
<rect x="17" y="26" class="st0" width="4" height="1"/>
<rect x="24" y="26" class="st0" width="4" height="1"/>
<rect x="10" y="26" class="st0" width="4" height="1"/>
<rect x="17" y="26" class="st0" width="4" height="1"/>
<rect x="24" y="26" class="st0" width="4" height="1"/>
<g>
	<g>
		<path class="st0" d="M16.1,17.4l-0.7,1.1c0.1,0.1,0.1,0.2,0.2,0.3h1.3C16.7,18.3,16.4,17.9,16.1,17.4z"/>
		<path class="st0" d="M15.5,21.1c-0.4,1-1.4,1.6-2.5,1.6c-1.5,0-2.8-1.2-2.8-2.8s1.2-2.8,2.8-2.8c0.1,0,0.3,0,0.4,0
			c0.2-0.4,0.5-0.7,0.7-1.1C13.8,16.1,13.4,16,13,16c-2.2,0-4,1.8-4,4c0,2.2,1.8,4,4,4c1.8,0,3.3-1.2,3.8-2.9H15.5z"/>
	</g>
	<path class="st0" d="M25,16c-0.4,0-0.8,0.1-1.1,0.2c0.2,0.4,0.3,0.8,0.5,1.1c0.2,0,0.4-0.1,0.6-0.1c1.5,0,2.8,1.2,2.8,2.8
		s-1.2,2.8-2.8,2.8s-2.8-1.2-2.8-2.8c0-0.5,0.1-0.9,0.3-1.3c-0.2-0.4-0.4-0.8-0.6-1.3c-0.6,0.7-1,1.6-1,2.6c0,2.2,1.8,4,4,4
		c2.2,0,4-1.8,4-4C29,17.8,27.2,16,25,16z"/>
	<path class="st0" d="M25.4,19.5c0,0-2.6-2.3-2.8-7c0.5-0.1,1.2-0.4,1.8-1.1c0.2-0.2,0.2-0.6,0-0.9c-0.2-0.2-0.6-0.2-0.9,0
		c-0.8,0.8-1.5,0.8-1.6,0.8c-0.3,0-0.6,0.3-0.6,0.6c0,0.5,0,0.9,0.1,1.4h-4.3l-0.5-1.2l0.8-0.1c0.3,0,0.5-0.3,0.5-0.6
		c0-0.3-0.2-0.5-0.5-0.5h-3c-0.3,0-0.5,0.2-0.5,0.5V12c0,0.3,0.2,0.5,0.5,0.4l1-0.1l0.7,1.8c-0.9,1.4-3.4,5-3.7,5.5
		c-0.3,0.5,0.1,1,0.5,1c0,0,0,0,0,0c0,0,0,0,0,0c0,0,0,0,0,0h6c0.2,0,0.4-0.1,0.6-0.3l2.3-4.6c0.9,3.2,2.6,4.7,2.7,4.8
		c0.1,0.1,0.3,0.1,0.4,0.1c0.2,0,0.4-0.1,0.5-0.2C25.7,20.1,25.7,19.7,25.4,19.5z M14.2,19.4l2.5-3.8l1.4,3.8H14.2z M19.1,18.4
		l-1.4-3.8H21L19.1,18.4z"/>
</g>
</svg>
