<?xml version="1.0" encoding="utf-8"?>
<!-- Generator: Adobe Illustrator 18.1.0, SVG Export Plug-In . SVG Version: 6.00 Build 0)  -->
<svg version="1.1" id="Layer_1" xmlns="http://www.w3.org/2000/svg" xmlns:xlink="http://www.w3.org/1999/xlink" x="0px" y="0px"
	 viewBox="0 0 38 42" style="enable-background:new 0 0 38 42;" xml:space="preserve">
<style type="text/css">
	.st0{fill:#FFFFFF;}
	.st1{fill:#E5C420;}
	.st2{opacity:0.25;}
	.st3{fill:#4C535B;}
	.st4{fill:#F27C00;}
	.st5{fill-rule:evenodd;clip-rule:evenodd;fill:none;stroke:#FFFFFF;stroke-miterlimit:10;}
	.st6{fill-rule:evenodd;clip-rule:evenodd;fill:none;stroke:#54F7FF;stroke-width:1.5;stroke-miterlimit:10;}
	.st7{fill:none;stroke:#FFFFFF;stroke-width:0.75;stroke-linecap:round;stroke-linejoin:round;stroke-miterlimit:10;}
	
		.st8{fill-rule:evenodd;clip-rule:evenodd;fill:none;stroke:#FFFFFF;stroke-width:0.75;stroke-linecap:round;stroke-linejoin:round;stroke-miterlimit:10;}
	.st9{fill-rule:evenodd;clip-rule:evenodd;fill:#FFFFFF;}
	
		.st10{fill-rule:evenodd;clip-rule:evenodd;fill:none;stroke:#FFFFFF;stroke-width:0.5;stroke-linecap:round;stroke-linejoin:round;stroke-miterlimit:10;}
	.st11{fill-rule:evenodd;clip-rule:evenodd;fill:none;stroke:#FFFFFF;stroke-width:0.5;stroke-linecap:round;stroke-miterlimit:10;}
</style>
<g>
	<path class="st0" d="M19,42c-2.4,0-19-9.3-19-23C0,8.5,8.5,0,19,0s19,8.5,19,19C38,32.7,21.4,42,19,42z"/>
</g>
<g>
	<path class="st1" d="M37,19c0,13.1-16,22-18,22S1,32,1,19C1,9.1,9.1,1,19,1S37,9.1,37,19z"/>
</g>
<g class="st2">
	<circle class="st3" cx="19" cy="20" r="15"/>
</g>
<g>
	<circle class="st0" cx="19" cy="19" r="15"/>
</g>
<g>
	<circle class="st0" cx="19" cy="19" r="14"/>
</g>
<g>
	<circle class="st4" cx="19" cy="19" r="14"/>
</g>
<rect x="10" y="26" class="st0" width="4" height="1"/>
<rect x="17" y="26" class="st0" width="4" height="1"/>
<rect x="24" y="26" class="st0" width="4" height="1"/>
<g>
	<g>
		<path class="st0" d="M25,16.8c1.8,0,3.2,1.5,3.2,3.2s-1.5,3.2-3.2,3.2s-3.2-1.5-3.2-3.2S23.2,16.8,25,16.8 M25,16
			c-2.2,0-4,1.8-4,4s1.8,4,4,4s4-1.8,4-4S27.2,16,25,16L25,16z"/>
	</g>
	<path class="st5" d="M21.7,22.3C21.3,21.6,21,20.8,21,20c0-2.2,1.8-4,4-4c0.7,0,1.4,0.2,2,0.6"/>
	<path class="st6" d="M25,20"/>
	<g>
		<path class="st7" d="M25,20l-3-8.6c-0.2-0.5-0.8-0.8-1.3-0.7L19.3,11"/>
	</g>
	<polyline class="st8" points="22.6,14.2 18.2,21 16,13.8 	"/>
	<g>
		<path class="st9" d="M15,14.4c-0.3,0-0.5-0.1-0.5-0.4v-0.5c0-0.3,0.2-0.5,0.5-0.5h2c0.3,0,0.5,0.2,0.5,0.5l0,0
			c0,0.3-0.2,0.5-0.5,0.6L15,14.4z"/>
	</g>
	<g>
		<g>
			<path class="st0" d="M13,16.8c1.8,0,3.2,1.5,3.2,3.2s-1.5,3.2-3.2,3.2S9.8,21.8,9.8,20S11.2,16.8,13,16.8 M13,16
				c-2.2,0-4,1.8-4,4s1.8,4,4,4s4-1.8,4-4S15.2,16,13,16L13,16z"/>
		</g>
	</g>
	<path class="st10" d="M17.6,17.8c0,0,2.9,0.2,3.8-3.8h0.9"/>
	<path class="st5" d="M13,16c-2.2,0-4,1.8-4,4"/>
	<line class="st11" x1="9" y1="15.8" x2="13" y2="15.8"/>
	<g>
		<path class="st9" d="M23.5,11.8c-0.3,0.1-0.4,0.3-0.3,0.6l0.7,1.9c0.1,0.3,0.4,0.4,0.7,0.4l1.3-0.3c0.3-0.1,0.5-0.3,0.6-0.6
			l0.5-2.3c0.1-0.3-0.1-0.4-0.4-0.4L23.5,11.8z"/>
	</g>
	<g>
		<path class="st0" d="M17.4,19c-0.5-2-2.2-3.5-4.4-3.5c-0.5,0-1,0.1-1.4,0.2l2.6,3.3H17.4z"/>
	</g>
	<g>
		<path class="st9" d="M18.1,22.9c-0.2,0-0.4,0-0.6-0.1c-1.6-0.3-4.6-1.4-4.7-1.5c-0.9-0.2-1.2-0.8-1.2-1.2c0.1-0.6,0.6-1.1,1.3-1.1
			h4.6c1.4,0,2.5,0.8,2.5,1.9C20.2,21.9,19.4,22.9,18.1,22.9z"/>
		<g>
			<path class="st4" d="M17.6,19.5c1.2,0,2.2,0.7,2.2,1.5c0,0.7-0.6,1.6-1.7,1.6c-0.2,0-0.3,0-0.5-0.1c-1.6-0.3-4.6-1.4-4.6-1.4
				c-1.4-0.2-1-1.6,0-1.6H17.6 M17.6,18.8H13c-0.9,0-1.6,0.6-1.7,1.4c-0.1,0.7,0.4,1.4,1.5,1.6c0.4,0.2,3.2,1.2,4.7,1.4
				c0.2,0,0.4,0.1,0.6,0.1c1.6,0,2.4-1.2,2.4-2.3C20.5,19.7,19.3,18.8,17.6,18.8L17.6,18.8z"/>
		</g>
	</g>
	<line class="st8" x1="13" y1="20" x2="16.4" y2="15.4"/>
	<g>
		<circle class="st4" cx="18.1" cy="21" r="0.8"/>
	</g>
	<line class="st7" x1="18.1" y1="22.3" x2="18.1" y2="23.5"/>
	<line class="st7" x1="17.3" y1="23.5" x2="18.8" y2="23.5"/>
</g>
</svg>
