<?xml version="1.0" encoding="utf-8"?>
<!-- Generator: Adobe Illustrator 18.1.0, SVG Export Plug-In . SVG Version: 6.00 Build 0)  -->
<svg version="1.1" id="Layer_1" xmlns="http://www.w3.org/2000/svg" xmlns:xlink="http://www.w3.org/1999/xlink" x="0px" y="0px"
	 viewBox="0 0 38 42" style="enable-background:new 0 0 38 42;" xml:space="preserve">
<style type="text/css">
	.st0{fill:#FFFFFF;}
	.st1{fill:#2C9174;}
	.st2{opacity:0.55;}
	.st3{fill:#4C535B;}
	.st4{fill:#999999;}
	.st5{fill:#B6B5BB;}
</style>
<g>
	<path class="st0" d="M19,42c-2.4,0-19-9.3-19-23C0,8.5,8.5,0,19,0s19,8.5,19,19C38,32.7,21.4,42,19,42z"/>
</g>
<g>
	<path class="st1" d="M37,19c0,13.1-16,22-18,22S1,32,1,19C1,9.1,9.1,1,19,1S37,9.1,37,19z"/>
</g>
<g class="st2">
	<circle class="st3" cx="19" cy="20" r="15"/>
</g>
<g>
	<circle class="st0" cx="19" cy="19" r="15"/>
</g>
<g>
	<path class="st3" d="M27,23c0,0,0-13-8-13s-8,13-8,13s-2,1.2-2,2s8.1,4,10,4c1.9,0,10-3.2,10-4S27,23,27,23z"/>
	<path class="st4" d="M19,10c0.8,0,1.4,0.1,2.1,0.3C20.6,9.6,20,9,19,9s-1.6,0.6-2.1,1.3C17.6,10.1,18.2,10,19,10z"/>
	<path class="st0" d="M22.4,20.8c0-0.2,0.1-0.4,0.2-0.5l1-1c0.1-0.1,0.1-0.3,0-0.4l-1-1c-0.1-0.1-0.2-0.3-0.2-0.5v-1.5
		c0-0.2-0.1-0.3-0.3-0.3h-1.5c-0.2,0-0.2-0.1-0.1-0.2c0,0,2.9-2.8-1.7-2.8s-1.7,2.8-1.7,2.8c0.1,0.1,0.1,0.2-0.1,0.2h-1.5
		c-0.2,0-0.3,0.1-0.3,0.3v1.5c0,0.2-0.1,0.4-0.2,0.5l-1,1c-0.1,0.1-0.1,0.3,0,0.4l1,1c0.1,0.1,0.2,0.3,0.2,0.5v1.5
		c0,0.2,0.1,0.3,0.3,0.3h1.5c0.2,0,0.4,0.1,0.5,0.2l1,1c0.1,0.1,0.3,0.1,0.4,0l1-1c0.1-0.1,0.3-0.2,0.5-0.2h1.5
		c0.2,0,0.3-0.1,0.3-0.3V20.8z"/>
	<circle class="st0" cx="19" cy="12.6" r="0.5"/>
	<ellipse class="st3" cx="19" cy="13.6" rx="1.5" ry="0.5"/>
	<g>
		<circle class="st3" cx="19" cy="19.1" r="2"/>
	</g>
	<g>
		<path class="st5" d="M27.2,23.1C27.1,23,27,23,27,23s0-0.1,0-0.3c-0.3,0.2-8.3,4.4-16,0c0,0.2,0,0.3,0,0.3s-0.1,0.1-0.2,0.1
			c2.7,1.5,5.4,2,7.8,2C23.1,25.2,26.6,23.4,27.2,23.1z"/>
	</g>
</g>
</svg>
