<?xml version="1.0" encoding="utf-8"?>
<!-- Generator: Adobe Illustrator 18.1.0, SVG Export Plug-In . SVG Version: 6.00 Build 0)  -->
<svg version="1.1" id="Layer_1" xmlns="http://www.w3.org/2000/svg" xmlns:xlink="http://www.w3.org/1999/xlink" x="0px" y="0px"
	 viewBox="0 0 38 42" style="enable-background:new 0 0 38 42;" xml:space="preserve">
<style type="text/css">
	.st0{fill:#FFFFFF;}
	.st1{fill:#C62236;}
	.st2{opacity:0.55;}
	.st3{fill:#4C535B;}
	.st4{fill:none;stroke:#4C535B;stroke-width:3;stroke-linejoin:bevel;stroke-miterlimit:10;}
</style>
<g>
	<path class="st0" d="M19,42c-2.4,0-19-9.3-19-23C0,8.5,8.5,0,19,0s19,8.5,19,19C38,32.7,21.4,42,19,42z"/>
</g>
<g>
	<path class="st1" d="M37,19c0,13.1-16,22-18,22S1,32,1,19C1,9.1,9.1,1,19,1S37,9.1,37,19z"/>
</g>
<g class="st2">
	<circle class="st3" cx="19" cy="20" r="15"/>
</g>
<g>
	<circle class="st0" cx="19" cy="19" r="15"/>
</g>
<g>
	<path class="st3" d="M13,26c0,0.5-0.4,1-1,1h-2c-0.6,0-1-0.5-1-1V12c0-0.6,0.4-1,1-1h2c0.6,0,1,0.4,1,1V26z"/>
</g>
<g>
	<path class="st3" d="M29,26c0,0.5-0.5,1-1,1h-2c-0.5,0-1-0.5-1-1V12c0-0.6,0.5-1,1-1h2c0.5,0,1,0.4,1,1V26z"/>
</g>
<polyline class="st4" points="27,14.5 10,14.5 27,22.5 "/>
</svg>
