<?xml version="1.0" encoding="utf-8"?>
<!-- Generator: Adobe Illustrator 18.1.0, SVG Export Plug-In . SVG Version: 6.00 Build 0)  -->
<svg version="1.1" id="Layer_1" xmlns="http://www.w3.org/2000/svg" xmlns:xlink="http://www.w3.org/1999/xlink" x="0px" y="0px"
	 viewBox="0 0 38 42" style="enable-background:new 0 0 38 42;" xml:space="preserve">
<style type="text/css">
	.st0{fill:#FFFFFF;}
	.st1{fill:#E5C420;}
	.st2{opacity:0.25;}
	.st3{fill:#4C535B;}
	.st4{fill-rule:evenodd;clip-rule:evenodd;fill:none;stroke:#0CA500;stroke-width:1.5;stroke-miterlimit:10;}
	.st5{clip-path:url(#SVGID_2_);fill:#999999;}
	.st6{clip-path:url(#SVGID_2_);fill:#FFFFFF;}
	.st7{clip-path:url(#SVGID_2_);}
	.st8{fill-rule:evenodd;clip-rule:evenodd;fill:none;stroke:#0CA500;stroke-width:1.65;stroke-miterlimit:10;}
	.st9{fill-rule:evenodd;clip-rule:evenodd;fill:none;stroke:#54F7FF;stroke-width:1.65;stroke-miterlimit:10;}
</style>
<g>
	<path class="st0" d="M19,42c-2.4,0-19-9.3-19-23C0,8.5,8.5,0,19,0s19,8.5,19,19C38,32.7,21.4,42,19,42z"/>
</g>
<g>
	<path class="st1" d="M37,19c0,13.1-16,22-18,22S1,32,1,19C1,9.1,9.1,1,19,1S37,9.1,37,19z"/>
</g>
<g class="st2">
	<circle class="st3" cx="19" cy="20" r="15"/>
</g>
<g>
	<circle class="st0" cx="19" cy="19" r="15"/>
</g>
<g>
	<path class="st4" d="M25,21"/>
</g>
<g>
	<defs>
		<circle id="SVGID_1_" cx="19" cy="19" r="14"/>
	</defs>
	<clipPath id="SVGID_2_">
		<use xlink:href="#SVGID_1_"  style="overflow:visible;"/>
	</clipPath>
	<rect x="1" y="24" class="st5" width="36" height="13"/>
	<polygon class="st6" points="17,22 16,24 17,26 18,26.1 20.5,27.6 23.6,28.5 26,27 28,26 29,24 27,22 	"/>
	<g class="st7">
		<g>
			<path class="st8" d="M22.2,23.9"/>
		</g>
		<path class="st9" d="M22.7,22.9"/>
		<g>
			<path class="st8" d="M22.2,23.9"/>
		</g>
		<path class="st9" d="M22.7,22.9"/>
		<path class="st3" d="M23.3,18.6c0,0.4,0,0.8,0,1.1c1.5,0.3,2.7,1.6,2.7,3.2c0,1.8-1.5,2.3-3.3,2.3s-3.3-0.5-3.3-2.3
			c0-1.2,0.6-2.2,1.5-2.8c0-0.4,0-0.8,0-1.2c-1.5,0.7-2.6,2.2-2.6,4c0,2.4,2,3.4,4.4,3.4s4.4-1,4.4-3.4
			C27.1,20.7,25.4,18.9,23.3,18.6z"/>
		<g>
			<path class="st3" d="M15,18c0.1-0.6,0.1-1.3-0.1-1.9l-1,0.6c0,0.3,0.1,0.5,0,0.8L15,18z"/>
			<path class="st3" d="M13,19.7c-1,0.9-2.4,1.2-3.7,0.6c-1.6-0.8-2.4-2.7-1.6-4.4c0.8-1.6,2.7-2.4,4.4-1.6c0.2,0.1,0.4,0.2,0.6,0.4
				c0.3-0.2,0.7-0.4,1-0.6c-0.3-0.3-0.7-0.6-1.1-0.8c-2.2-1-4.8-0.1-5.8,2.1s-0.1,4.8,2.1,5.8c1.8,0.9,3.9,0.3,5.2-1.1L13,19.7z"/>
		</g>
		<g>
			<g>
				<path class="st3" d="M23.3,22.6c0,0-1.5-3.5,0.5-8.3c0,0,1.2,0.3,2.3-0.2c0.3-0.2,0.5-0.5,0.4-0.9c-0.1-0.4-0.5-0.5-0.9-0.4
					c-1.1,0.4-1.6,0.2-1.9,0.1c-0.3-0.1-0.8,0-0.9,0.3c-0.2,0.5-0.4,0.9-0.6,1.4l-4.2-2l0.1-1.4l0.8,0.3c0.3,0.1,0.6-0.1,0.8-0.3
					c0.1-0.3,0-0.6-0.3-0.7l-3-1.4c-0.3-0.1-0.6,0-0.7,0.3l-0.2,0.5c-0.1,0.3,0,0.6,0.3,0.7l1,0.3L16.6,13c0,0-5.7,3.4-6.2,3.8
					c-0.4,0.3-0.4,1,0.1,1.2c0,0,0,0,0,0c0,0-0.3-0.2,0,0c0.3,0.2,6,2.8,6,2.8c0.3,0.1,0.5,0.1,0.7-0.1l4.4-3.5
					c-0.6,3.6,0.4,5.9,0.5,6c0.1,0.2,0.2,0.3,0.3,0.3c0.2,0.1,0.4,0.1,0.6,0C23.3,23.4,23.5,23,23.3,22.6z M17.5,18.6l0.3-4.5
					l3.3,1.6L17.5,18.6z M16.1,19.1l-3.9-1.8l4.3-2.6L16.1,19.1z"/>
			</g>
		</g>
	</g>
</g>
</svg>
