<?xml version="1.0" encoding="utf-8"?>
<!-- Generator: Adobe Illustrator 18.1.0, SVG Export Plug-In . SVG Version: 6.00 Build 0)  -->
<svg version="1.1" id="Layer_1" xmlns="http://www.w3.org/2000/svg" xmlns:xlink="http://www.w3.org/1999/xlink" x="0px" y="0px"
	 viewBox="0 0 38 42" style="enable-background:new 0 0 38 42;" xml:space="preserve">
<style type="text/css">
	.st0{fill:#FFFFFF;}
	.st1{fill:#E5C420;}
	.st2{opacity:0.25;}
	.st3{fill:#4C535B;}
	.st4{fill:#E1E1E1;}
	.st5{fill:#F91C02;}
</style>
<g>
	<path class="st0" d="M19,42c-2.4,0-19-9.3-19-23C0,8.5,8.5,0,19,0s19,8.5,19,19C38,32.7,21.4,42,19,42z"/>
</g>
<g>
	<path class="st1" d="M37,19c0,13.1-16,22-18,22S1,32,1,19C1,9.1,9.1,1,19,1S37,9.1,37,19z"/>
</g>
<g class="st2">
	<circle class="st3" cx="19" cy="20" r="15"/>
</g>
<g>
	<circle class="st0" cx="19" cy="19" r="15"/>
</g>
<path class="st4" d="M19,15c-1.3,0-2.4-0.2-3.4-0.4l-1.2,4.9c1.4,0.3,3,0.5,4.6,0.5V15z"/>
<g>
	<path class="st5" d="M29,24.5c0-0.5-0.4-1.1-1-1.2l-8.1-2c-0.5-0.1-1.4-0.1-1.9,0l-8,2c-0.5,0.1-1,0.7-1,1.2v1c0,0.5,0.4,1.1,1,1.2
		l8,2c0.5,0.1,1.4,0.1,1.9,0l8.1-2c0.5-0.1,1-0.7,1-1.2V24.5z"/>
</g>
<path class="st5" d="M22.4,14.6L21.2,10c-0.1-0.5-0.7-1-1.2-1h-2c-0.5,0-1.1,0.4-1.2,1l-1.2,4.6c1,0.2,2.1,0.4,3.4,0.4
	S21.4,14.8,22.4,14.6z"/>
<path class="st5" d="M14.4,19.5L13.2,24c-0.1,0.5,0.2,1,0.8,1h10c0.5,0,0.9-0.4,0.8-1l-1.1-4.6c-1.4,0.3-3,0.5-4.6,0.5
	S15.8,19.8,14.4,19.5z"/>
</svg>
