<?xml version="1.0" encoding="utf-8"?>
<!-- Generator: Adobe Illustrator 18.1.0, SVG Export Plug-In . SVG Version: 6.00 Build 0)  -->
<svg version="1.1" id="Layer_1" xmlns="http://www.w3.org/2000/svg" xmlns:xlink="http://www.w3.org/1999/xlink" x="0px" y="0px"
	 viewBox="0 0 38 42" style="enable-background:new 0 0 38 42;" xml:space="preserve">
<style type="text/css">
	.st0{fill:#FFFFFF;}
	.st1{fill:#2C9174;}
	.st2{opacity:0.55;}
	.st3{fill:#4C535B;}
	.st4{clip-path:url(#SVGID_2_);}
	.st5{fill-rule:evenodd;clip-rule:evenodd;fill:#999999;}
	.st6{clip-path:url(#SVGID_2_);fill:none;stroke:#4C535B;stroke-width:1.5;stroke-miterlimit:10;}
	.st7{clip-path:url(#SVGID_2_);fill:#4C535B;}
</style>
<g>
	<path class="st0" d="M19,42c-2.4,0-19-9.3-19-23C0,8.5,8.5,0,19,0s19,8.5,19,19C38,32.7,21.4,42,19,42z"/>
</g>
<g>
	<path class="st1" d="M37,19c0,13.1-16,22-18,22S1,32,1,19C1,9.1,9.1,1,19,1S37,9.1,37,19z"/>
</g>
<g class="st2">
	<circle class="st3" cx="19" cy="20" r="15"/>
</g>
<g>
	<circle class="st0" cx="19" cy="19" r="15"/>
</g>
<g>
	<defs>
		<circle id="SVGID_1_" cx="19" cy="19" r="14"/>
	</defs>
	<clipPath id="SVGID_2_">
		<use xlink:href="#SVGID_1_"  style="overflow:visible;"/>
	</clipPath>
	<g class="st4">
		<path class="st5" d="M1.5,27C1.2,27,1,27.2,1,27.5v6C1,33.8,1.2,34,1.5,34h35c0.3,0,0.5-0.2,0.5-0.5v-6c0-0.3-0.2-0.5-0.5-0.5H1.5
			z"/>
	</g>
	<g class="st4">
		<path class="st0" d="M21.4,25.9c-0.8,0-1.5-0.7-1.5-1.5c0-0.8,0.7-1.5,1.5-1.5s1.5,0.7,1.5,1.5C22.9,25.2,22.2,25.9,21.4,25.9z"/>
		<path class="st3" d="M37.9,21.8c-1.4,0-2.6,1.2-2.6,2.6s1.2,2.6,2.6,2.6s2.6-1.2,2.6-2.6S39.3,21.8,37.9,21.8z M37.9,25.9
			c-0.8,0-1.5-0.7-1.5-1.5c0-0.8,0.7-1.5,1.5-1.5s1.5,0.7,1.5,1.5C39.4,25.2,38.7,25.9,37.9,25.9z"/>
		<path class="st3" d="M43.5,22.6c0-0.6,0-1.2,0-1.7c0-2.4-4-3.2-5.7-3.3c-1.7-0.1-2-1.1-2.4-1.6C35,15.3,32.8,12,28.1,12
			c-0.1,0-0.2,0-0.2,0c-0.3,0-0.4,0-0.4,0c-0.4,0-1.1,0-2.4,0c-5.5,0-6.4,4.5-6.4,4.5c-0.3,1.1-2.9,1.5-2.9,5.2v0.8
			c-0.4,0.2-0.8,0.6-0.8,1.1c0,1.1,0.8,1.1,0.8,1.1H18c0-0.1,0-0.2,0-0.4c0-1.9,1.5-3.4,3.4-3.4s3.4,1.5,3.4,3.4c0,0.1,0,0.3,0,0.4
			h9.8c0-0.1,0-0.2,0-0.4c0-1.9,1.5-3.4,3.4-3.4s3.4,1.5,3.4,3.4c0,0.1,0,0.3,0,0.4h2.3c0,0,0.8,0,0.8-1.1
			C44.2,23.1,43.9,22.7,43.5,22.6z"/>
		<path class="st0" d="M26,13.9c0-0.4-0.8-0.4-0.8-0.4c-4.3,0-5,3.5-5,3.9c0,0-0.1,0.6,1.1,0.6c1.4,0,3.9,0,3.9,0s0.8,0,0.8-0.8
			S26,13.9,26,13.9z"/>
		<path class="st0" d="M27,13.9c0-0.4,0.8-0.4,0.8-0.4s0.4,0,0.8,0c4.2,0.1,5.9,3.5,6,3.9c0,0,0.1,0.6-1.1,0.6c-1.4,0-5.7,0-5.7,0
			s-0.8,0-0.8-0.8C27,16.4,27,13.9,27,13.9z"/>
		<g>
			<path class="st3" d="M21.4,21.8c-1.4,0-2.6,1.2-2.6,2.6s1.2,2.6,2.6,2.6s2.6-1.2,2.6-2.6S22.8,21.8,21.4,21.8z M21.4,25.8
				c-0.8,0-1.4-0.6-1.4-1.4c0-0.8,0.6-1.4,1.4-1.4s1.4,0.6,1.4,1.4C22.8,25.1,22.1,25.8,21.4,25.8z"/>
		</g>
	</g>
	<line class="st6" x1="11" y1="22" x2="11" y2="12.5"/>
	<g class="st4">
		<path class="st3" d="M19,11c0,0.6-0.5,1-1,1h-3c-0.6,0-1.1-0.4-1.3-0.9l-0.4-1.1C13.1,9.4,13.4,9,14,9h4c0.5,0,1,0.4,1,1V11z"/>
	</g>
	<path class="st6" d="M11,12.5c0-1.4,1.1-2.5,2.5-2.5h2"/>
	<path class="st7" d="M12.5,27h-3v-6c0-0.6,0.4-1,1-1h1c0.6,0,1,0.4,1,1V27z"/>
</g>
</svg>
