<?xml version="1.0" encoding="utf-8"?>
<!-- Generator: Adobe Illustrator 18.1.0, SVG Export Plug-In . SVG Version: 6.00 Build 0)  -->
<svg version="1.1" id="Layer_1" xmlns="http://www.w3.org/2000/svg" xmlns:xlink="http://www.w3.org/1999/xlink" x="0px" y="0px"
	 viewBox="0 0 38 42" style="enable-background:new 0 0 38 42;" xml:space="preserve">
<style type="text/css">
	.st0{fill:#4C535B;}
	.st1{fill:#FFFFFF;}
	.st2{opacity:0.35;}
	.st3{fill:#2C9174;}
	.st4{fill:#008DD0;}
	.st5{fill-rule:evenodd;clip-rule:evenodd;fill:none;stroke:#54F7FF;stroke-width:1.05;stroke-miterlimit:10;}
</style>
<g>
	<path class="st0" d="M17,41.5c-0.8,0-1.5-0.7-1.5-1.5V2c0-0.8,0.7-1.5,1.5-1.5h4c0.8,0,1.5,0.7,1.5,1.5v38c0,0.8-0.7,1.5-1.5,1.5
		H17z"/>
	<path class="st1" d="M21,1c0.5,0,1,0.5,1,1v38c0,0.5-0.5,1-1,1h-4c-0.5,0-1-0.5-1-1V2c0-0.5,0.5-1,1-1H21 M21,0h-4
		c-1.1,0-2,0.9-2,2v38c0,1.1,0.9,2,2,2h4c1.1,0,2-0.9,2-2V2C23,0.9,22.1,0,21,0L21,0z"/>
</g>
<rect x="16" y="33" class="st2" width="6" height="2"/>
<g>
	<path class="st3" d="M5,32.5c-1.9,0-3.5-1.6-3.5-3.5V9c0-1.9,1.6-3.5,3.5-3.5h22c1.2,0,2.7,0,4.4,2.2c0.6,1,6.1,9.3,6.1,11.3
		S32,29.3,31.4,30.3c-1.7,2.2-3.3,2.2-4.3,2.2H5z"/>
	<g>
		<path class="st1" d="M27,6c1.1,0,2.4,0,4,2c0,0,6,9.1,6,11c0,1.9-6,11-6,11c-1.5,2-2.8,2-3.9,2c0,0-0.1,0-0.1,0H5
			c-1.7,0-3-1.3-3-3V9c0-1.7,1.3-3,3-3L27,6C27,6,27,6,27,6 M27,5L27,5H5C2.8,5,1,6.8,1,9v20c0,2.2,1.8,4,4,4h22l0.1,0l0.1,0
			c1.1,0,2.9,0,4.7-2.4l0,0l0,0C33.3,28.4,38,21,38,19c0-2-4.7-9.4-6.2-11.5l0,0l0,0C30,5,28.2,5,27,5L27,5z"/>
	</g>
</g>
<g>
	<path class="st4" d="M5,29.5c-0.3,0-0.5-0.2-0.5-0.5V9c0-0.3,0.2-0.5,0.5-0.5h22c0.9,0,1.2,0,2,1c2.6,3.9,5.1,8.2,5.5,9.5
		c-0.4,1.3-2.9,5.6-5.5,9.6c-0.7,0.9-1,0.9-1.8,0.9H5z"/>
	<path class="st1" d="M27,9c0.8,0,1,0,1.6,0.7c2.5,3.7,4.8,7.9,5.4,9.3c-0.5,1.4-2.9,5.5-5.4,9.3C28,29,27.8,29,27.1,29H5V9H27
		 M27,8H5C4.4,8,4,8.4,4,9v20c0,0.6,0.4,1,1,1h22.1c0.8,0,1.4,0,2.2-1.2c2.5-3.8,5.3-8.5,5.6-9.8c-0.3-1.3-3.1-6-5.6-9.8
		C28.5,8,27.9,8,27,8L27,8z"/>
</g>
<g>
	<path class="st5" d="M28.2,24.2"/>
</g>
<path class="st5" d="M28.2,24.2"/>
<g>
	<g>
		<path class="st1" d="M15.3,18.9l-0.7,1c0.1,0.1,0.1,0.2,0.2,0.3H16C15.9,19.7,15.7,19.2,15.3,18.9z"/>
		<path class="st1" d="M14.9,22.2c-0.4,0.9-1.2,1.5-2.3,1.5c-1.4,0-2.5-1.1-2.5-2.5c0-1.4,1.1-2.5,2.5-2.5c0.1,0,0.3,0,0.4,0l0.7-1
			c-0.3-0.1-0.7-0.2-1.1-0.2c-2,0-3.6,1.6-3.6,3.6c0,2,1.6,3.6,3.6,3.6c1.6,0,3-1.1,3.4-2.6H14.9z"/>
	</g>
	<path class="st1" d="M23.4,17.6c-0.4,0-0.7,0.1-1,0.2c0.1,0.4,0.3,0.7,0.5,1c0.2,0,0.4-0.1,0.5-0.1c1.4,0,2.5,1.1,2.5,2.5
		c0,1.4-1.1,2.5-2.5,2.5c-1.4,0-2.5-1.1-2.5-2.5c0-0.4,0.1-0.8,0.3-1.2c-0.2-0.3-0.4-0.7-0.6-1.1c-0.5,0.6-0.9,1.4-0.9,2.3
		c0,2,1.6,3.6,3.6,3.6c2,0,3.6-1.6,3.6-3.6C27,19.2,25.4,17.6,23.4,17.6z"/>
	<path class="st1" d="M23.8,20.7c0,0-2.3-2-2.5-6.3c0.4-0.1,1-0.4,1.6-1c0.2-0.2,0.2-0.6,0-0.8c-0.2-0.2-0.6-0.2-0.8,0
		c-0.7,0.7-1.4,0.7-1.4,0.7c-0.3,0-0.6,0.3-0.6,0.6c0,0.4,0,0.8,0.1,1.2h-3.8L16,14.1l0.7-0.1c0.2,0,0.4-0.3,0.4-0.5
		c0-0.2-0.2-0.5-0.4-0.5h-2.7c-0.2,0-0.4,0.2-0.4,0.5V14c0,0.2,0.2,0.4,0.4,0.4l0.9-0.1l0.6,1.6c-0.8,1.2-3.1,4.5-3.3,4.9
		c-0.3,0.4,0.1,0.9,0.5,0.9c0,0,0,0,0,0c0,0,0,0,0,0c0,0,0,0,0,0H18c0.2,0,0.4-0.1,0.5-0.3l2.1-4.1c0.8,2.8,2.4,4.2,2.5,4.3
		c0.1,0.1,0.2,0.1,0.4,0.1c0.2,0,0.3-0.1,0.4-0.2C24,21.3,24,20.9,23.8,20.7z M13.7,20.6l2.3-3.4l1.3,3.4H13.7z M18.1,19.8l-1.3-3.4
		h3L18.1,19.8z"/>
</g>
</svg>
