<?xml version="1.0" encoding="utf-8"?>
<!-- Generator: Adobe Illustrator 18.1.0, SVG Export Plug-In . SVG Version: 6.00 Build 0)  -->
<svg version="1.1" id="Layer_1" xmlns="http://www.w3.org/2000/svg" xmlns:xlink="http://www.w3.org/1999/xlink" x="0px" y="0px"
	 viewBox="0 0 38 42" style="enable-background:new 0 0 38 42;" xml:space="preserve">
<style type="text/css">
	.st0{fill:#FFFFFF;}
	.st1{fill:#2C9174;}
	.st2{opacity:0.55;}
	.st3{fill:#4C535B;}
	.st4{fill:none;stroke:#4C535B;stroke-width:0.75;stroke-linecap:round;stroke-linejoin:round;stroke-miterlimit:10;}
</style>
<g>
	<path class="st0" d="M19,42c-2.4,0-19-9.3-19-23C0,8.5,8.5,0,19,0s19,8.5,19,19C38,32.7,21.4,42,19,42z"/>
</g>
<g>
	<path class="st1" d="M37,19c0,13.1-16,22-18,22S1,32,1,19C1,9.1,9.1,1,19,1S37,9.1,37,19z"/>
</g>
<g class="st2">
	<circle class="st3" cx="19" cy="20" r="15"/>
</g>
<g>
	<circle class="st0" cx="19" cy="19" r="15"/>
</g>
<path class="st4" d="M17.4,14.6c0,0,4.7-1.3,0.6,1.8c0,0,5.1-2.2,1.3,1.3c0,0,4.3-2.6,1.6,1"/>
<path class="st3" d="M28.6,21.1c-1,1.4-3.2,1.8-5.4,1.8c-1.2,0-2.5-0.1-3.5-0.2l-0.3,0c-1-0.1-1.6-0.4-2.2-0.6
	c-1.1-0.4-2.1-0.9-4.8-0.3c-1,0.2-2.2-0.5-2.8-0.9c-0.3,0.6-1.2,2.7-0.1,3.3c0.2,0.1,0.5,0.2,0.8,0.3c0.1-0.4,0.4-0.7,0.8-0.7
	c0.4,0,0.6,0.5,0.6,0.9c0,0,0,0,0,0c0.4,0.1,0.8,0.1,1.2,0.2c0-0.4,0.3-0.8,0.7-0.8c0.4,0,0.7,0.4,0.7,0.9c0.4,0,0.8,0,1.2,0
	c0,0,0.3,0,0.3-0.4s0.5-0.4,0.5-0.4l1.9,0.2c0,0-0.5,0.8,1.6,0.7c0,0,0.1,0,0.1,0c0-0.5,0.3-0.9,0.7-0.9c0.4,0,0.7,0.4,0.7,0.9
	c0.5,0,1.1-0.1,1.6-0.1c0-0.4,0.2-0.8,0.6-0.9c0.4,0,0.7,0.3,0.8,0.7c0.6-0.1,1.1-0.2,1.7-0.3c-0.1-0.4,0.1-0.8,0.5-0.9
	c0.3-0.1,0.6,0.1,0.8,0.5c0.7-0.3,1.3-0.6,1.6-1C29.3,22.1,28.9,21.4,28.6,21.1z"/>
<path class="st3" d="M12.2,21.1c2.9-0.6,4-0.1,5.1,0.4c0.6,0.2,1.2,0.5,2,0.6l0.3,0c2.6,0.2,7.4,0.7,8.5-1.7
	c-0.2-0.7-0.7-1.6-1.9-1.6c-1.6,0-2.8-0.2-3.8-0.6c-0.4,1-0.7,1.2-0.7,1.2c0,0,0,0,0,0c-0.2,0.2-0.5,0.4-0.8,0.4c-0.6,0-1-0.5-1-1
	c0-0.1,0-0.3,0.1-0.4c-0.2,0.2-0.4,0.3-0.7,0.3c-0.6,0-1-0.5-1-1c0-0.1,0-0.2,0.1-0.4c-0.1,0-0.2,0.1-0.3,0.1c-0.6,0-1-0.5-1-1
	c0-0.3,0.1-0.6,0.4-0.8c-0.5,0-1-0.5-1-1c0-0.5,0.3-0.8,0.7-1c0,0,0,0,0,0c0.5-0.2,1-0.3,1.4-0.3C18.3,12.1,17.8,11,17,11
	c-1.2,0-2.7,0-2,1.7c0,0-1,1.9-2,1.2s-2.2,1.2-2.2,1.9c-0.1,2.4-1.1,2.4-1.1,4.3C10.2,20.5,11.4,21.2,12.2,21.1z"/>
</svg>
